# Blender 3.5.1
# www.blender.org
mtllib scherbenKlein.mtl
o 300586_23_06_15_12_34_13_1
v 3.678848 0.954768 4.246679
v 3.187700 0.615225 4.048351
v 1.990292 0.405900 1.329476
v 3.601346 0.309074 1.530728
v 3.514771 0.378888 1.500047
v 1.967272 0.353720 1.328620
v 2.747267 0.596801 3.895652
v 2.684592 0.505721 3.860732
v 2.901448 0.143716 1.462006
v 3.036697 0.258169 1.461330
v 2.352577 0.382382 2.810962
vn 0.6564 0.7295 -0.1922
vn 0.5070 -0.8417 0.1857
vn 0.1522 -0.9752 0.1609
vn -0.0811 -0.9866 0.1416
vn 0.1320 -0.0420 -0.9904
vn -0.2294 0.9600 -0.1608
vn -0.3191 -0.1398 0.9373
vn -0.3233 -0.0829 0.9426
vn -0.2933 0.9391 -0.1794
vn -0.8412 0.4994 0.2074
vn 0.1534 0.9811 -0.1182
vn -0.8523 0.4763 0.2160
vn 0.1500 -0.2359 -0.9601
vn 0.1156 -0.1424 -0.9830
vn 0.2131 -0.9651 0.1524
vn 0.1057 -0.1308 -0.9858
vn -0.2293 -0.9702 0.0784
vn -0.8929 0.3902 0.2245
vt 0.927027 0.082651
vt 0.009747 0.170570
vt 0.368310 0.962113
vt 0.137059 0.225145
vt 0.051912 0.121792
vt 0.061203 0.655335
vt 0.204766 0.932982
vt 0.514958 0.078456
vt 0.853825 0.815825
vt 0.991424 0.119513
vt 0.707560 0.783000
vt 0.469568 0.061058
vt 0.886682 0.168647
vt 0.233494 0.205500
vt 0.806547 0.703338
vt 0.790286 0.156465
vt 0.888032 0.244807
vt 0.805376 0.288671
vt 0.829611 0.722765
vt 0.709354 0.758828
vt 0.359018 0.797787
vt 0.466231 0.035068
vt 0.080549 0.973503
vt 0.081977 0.283783
vt 0.891756 0.890133
vt 0.996967 0.426419
vt 0.084236 0.603811
vt 0.830771 0.311751
vt 0.053215 0.952650
vt 0.968044 0.417332
vt 0.584899 0.622775
vt 0.824150 0.692923
vt 0.802457 0.878977
vt 0.794086 0.129090
vt 0.511229 0.750490
vt 0.538627 0.871375
vt 0.804667 0.347318
vt 0.879057 0.529761
vt 0.826164 0.855570
vt 0.474534 0.780430
vt 0.813524 0.405591
vt 0.963575 0.144069
vt 0.132772 0.849497
vt 0.762968 0.030792
s 0
usemtl 300586_23_06_15_12_34_13_1
f 1/1/1 4/13/1 5/17/1
f 1/2/2 2/5/2 4/14/2
f 8/27/3 9/31/3 2/6/3
f 9/32/4 8/28/4 11/41/4
f 9/35/5 6/20/5 3/11/5
f 10/37/6 7/24/6 5/18/6
f 2/7/7 7/23/7 8/29/7
f 1/3/8 7/23/8 2/7/8
f 1/4/9 5/18/9 7/24/9
f 7/26/10 11/42/10 8/30/10
f 7/25/11 10/38/11 3/9/11
f 7/26/12 3/10/12 11/42/12
f 5/19/13 4/15/13 9/33/13
f 9/33/14 10/39/14 5/19/14
f 4/16/15 2/8/15 9/34/15
f 9/35/16 3/11/16 10/40/16
f 9/36/17 11/43/17 6/21/17
f 11/44/18 3/12/18 6/22/18
o 300586_23_06_15_12_34_13_2
v 4.747864 0.963157 0.328883
v 4.372630 0.652796 0.559731
v 1.391200 0.339303 -0.024768
v 1.402278 0.452810 -0.050778
v 2.513529 0.307933 -1.222040
v 2.124437 0.161790 -0.782622
v 1.973665 0.246679 -0.635947
v 2.671510 0.373898 0.492820
v 2.442465 0.380927 -1.164974
v 3.848215 0.506378 0.899140
v 3.899883 0.579589 0.878400
vn 0.4708 -0.8170 -0.3331
vn -0.3693 0.2417 0.8973
vn 0.2621 -0.9611 -0.0875
vn 0.2326 0.7294 -0.6433
vn -0.3289 0.9333 0.1439
vn 0.5688 -0.1737 0.8039
vn 0.2401 -0.9696 -0.0474
vn -0.7277 -0.0849 -0.6806
vn 0.5651 -0.0720 0.8219
vn -0.3351 0.4681 0.8177
vn 0.0640 -0.9885 0.1369
vn -0.7276 -0.1276 -0.6741
vn -0.7123 -0.1590 -0.6836
vn -0.7269 -0.1238 -0.6755
vn -0.2140 0.9751 0.0578
vn -0.3351 0.4201 0.8433
vn -0.0478 -0.9818 0.1838
vn 0.0564 0.9577 -0.2823
vt 0.002109 0.262094
vt 0.683845 0.130986
vt 0.802196 0.391993
vt 0.979854 0.945716
vt 0.182376 0.284900
vt 0.070437 0.158476
vt 0.876133 0.928342
vt 0.446950 0.731971
vt 0.914902 0.828813
vt 0.952678 0.806749
vt 0.939458 0.832265
vt 0.449521 0.757107
vt 0.151699 0.987913
vt 0.222275 0.263358
vt 0.549989 0.187896
vt 0.740081 0.104016
vt 0.918028 0.393095
vt 0.776234 0.172457
vt 0.606062 0.101913
vt 0.021245 0.648971
vt 0.886684 0.546276
vt 0.972770 0.809660
vt 0.912946 0.610190
vt 0.745000 0.409322
vt 0.248004 0.960592
vt 0.139050 0.478984
vt 0.554000 0.693802
vt 0.744059 0.728244
vt 0.976684 0.533990
vt 0.773932 0.130824
vt 0.017799 0.382531
vt 0.938083 0.413629
vt 0.793077 0.450766
vt 0.075284 0.288885
vt 0.143416 0.014985
vt 0.402921 0.481795
vt 0.630768 0.659534
vt 0.501222 0.317063
vt 0.098453 0.311615
vt 0.835285 0.955037
vt 0.408285 0.508530
vt 0.088727 0.419514
vt 0.796163 0.752731
vt 0.131011 0.957013
s 0
usemtl 300586_23_06_15_12_34_13_2
f 16/58/19 12/45/19 13/50/19
f 19/72/20 15/56/20 14/52/20
f 17/62/21 16/59/21 13/50/21
f 20/74/22 12/46/22 16/60/22
f 22/82/23 12/47/23 20/75/23
f 22/83/24 21/78/24 13/49/24
f 21/79/25 17/63/25 13/50/25
f 14/53/26 15/55/26 18/67/26
f 13/51/27 12/48/27 22/84/27
f 19/70/28 21/80/28 22/85/28
f 17/64/29 21/81/29 19/71/29
f 18/67/30 17/65/30 14/53/30
f 20/76/31 16/61/31 17/65/31
f 20/76/32 17/65/32 18/67/32
f 20/77/33 18/68/33 22/86/33
f 22/87/34 15/56/34 19/72/34
f 19/73/35 14/54/35 17/66/35
f 22/88/36 18/69/36 15/57/36
o 300586_23_06_15_12_34_13_3
v -1.616239 0.462578 -1.006066
v 0.518559 0.921237 -0.990145
v -2.831012 0.453707 -1.592690
v -2.843737 0.359654 -1.556819
v 0.450058 0.986159 -0.949513
v 0.000003 0.724313 -0.707580
v -1.615206 0.314345 -2.649633
v -0.467910 0.482699 -0.458991
v -2.177812 0.148943 -2.142951
v -2.210999 0.251753 -2.132629
v -0.400744 0.610939 -0.484838
v -1.706667 0.377990 -2.627752
vn -0.2482 0.9676 0.0460
vn 0.2393 -0.9696 -0.0508
vn -0.2179 0.9756 0.0268
vn 0.1076 0.9654 -0.2375
vn -0.6763 -0.1458 -0.7221
vn -0.6813 -0.1786 -0.7099
vn 0.3176 0.6827 -0.6581
vn -0.4087 0.8898 0.2028
vn 0.2957 0.7112 -0.6378
vn 0.5032 -0.0904 0.8594
vn 0.3522 -0.9291 -0.1130
vn 0.5017 -0.0859 0.8608
vn 0.4875 -0.0317 0.8725
vn -0.4034 0.3791 0.8328
vn -0.0533 0.9863 -0.1564
vn -0.6744 -0.1450 -0.7240
vn -0.5053 -0.4794 -0.7175
vn -0.0721 -0.9619 0.2639
vn -0.4076 0.3522 0.8425
vn -0.4057 0.3731 0.8344
vt 0.607521 0.997134
vt 0.155689 0.808803
vt 0.336544 0.670881
vt 0.963085 0.309243
vt 0.110927 0.012624
vt 0.065419 0.967755
vt 0.507097 0.963990
vt 0.879148 0.998091
vt 0.761776 0.865152
vt 0.073789 0.680808
vt 0.764550 0.843523
vt 0.852605 0.605492
vt 0.141835 0.650870
vt 0.813253 0.234628
vt 0.090891 0.041559
vt 0.505099 0.985134
vt 0.747288 0.082848
vt 0.338116 0.968004
vt 0.011445 0.345655
vt 0.962936 0.449828
vt 0.080160 0.903257
vt 0.293627 0.839227
vt 0.283728 0.386605
vt 0.123568 0.976293
vt 0.194663 0.970020
vt 0.901815 0.495471
vt 0.690724 0.650352
vt 0.013633 0.396380
vt 0.519086 0.814184
vt 0.913097 0.855294
vt 0.174552 0.077717
vt 0.823785 0.863002
vt 0.417131 0.793769
vt 0.524148 0.841602
vt 0.712456 0.011819
vt 0.253268 0.970203
vt 0.714282 0.680704
vt 0.109396 0.785854
vt 0.991753 0.480078
vt 0.012356 0.188568
vt 0.253247 0.041771
vt 0.312123 0.863436
s 0
usemtl 300586_23_06_15_12_34_13_3
f 33/123/37 28/105/37 34/128/37
f 31/116/38 29/107/38 30/111/38
f 32/119/39 33/123/39 34/128/39
f 23/89/40 32/120/40 25/96/40
f 31/117/41 25/97/41 32/122/41
f 25/97/42 31/117/42 26/99/42
f 24/92/43 29/108/43 34/127/43
f 27/102/44 34/128/44 28/105/44
f 27/103/45 24/93/45 34/129/45
f 28/106/46 33/124/46 30/113/46
f 30/112/47 29/109/47 24/94/47
f 28/106/48 30/113/48 24/95/48
f 27/104/49 28/106/49 24/95/49
f 30/115/50 33/125/50 23/91/50
f 33/126/51 32/121/51 23/90/51
f 31/117/52 32/122/52 34/130/52
f 31/117/53 34/130/53 29/110/53
f 30/114/54 26/100/54 31/118/54
f 30/115/55 23/91/55 26/101/55
f 23/91/56 25/98/56 26/101/56
