# Blender 3.5.1
# www.blender.org
mtllib paket_2.mtl
o 272963_23_05_27_00_08_56_0
v 1.999944 0.062978 -1.999973
v -1.821985 3.084002 1.999797
v -1.821950 0.063077 1.999849
v -0.212303 3.084146 1.999939
v -0.207542 3.085952 2.019632
v -0.208062 0.020587 2.019422
v -1.822107 3.084095 0.224957
v -1.836277 3.086110 0.217921
v -1.830157 3.047186 0.220299
v -1.829920 3.048366 -0.170469
v -1.836286 3.055199 -0.170620
v -0.214461 3.084365 0.227448
v 0.183855 3.085685 2.019551
v 0.188596 3.084126 1.999919
v 0.190689 3.084519 0.226928
v 0.186744 0.062763 1.999934
v 1.999891 3.084019 1.999730
v 1.999925 0.062985 1.999930
v 1.999979 3.084193 0.226002
v 0.190423 3.084566 -0.179733
v 2.007875 3.085835 0.217408
v 0.184319 0.019681 2.019015
v -0.210592 0.062639 2.000016
v -1.822153 0.064462 0.225570
v -1.829944 0.036523 -0.172728
v -1.794475 0.061686 0.222356
v -1.795495 0.034227 0.221099
v -1.830730 0.035783 0.221373
v -1.834342 -0.000617 0.221415
v -0.210664 0.032880 0.222193
v 1.997467 -0.000320 0.220526
v -1.794778 0.033467 -0.172731
v -0.208842 0.025714 0.223280
v -1.834822 -0.000534 -0.173089
v 2.000055 0.062919 0.224145
v 0.187713 0.030905 0.223109
v 0.187655 0.030697 -0.174833
v 1.973109 0.061451 0.221703
v 1.972790 0.033601 0.219267
v 2.007872 0.022151 0.221356
v 2.007981 0.021868 -0.172493
v 1.973029 0.061522 -0.174225
v 1.973589 0.033944 -0.171329
v -1.822145 3.084391 -0.177416
v -1.821974 3.084088 -1.999929
v -0.214189 3.084573 -0.179474
v -0.212653 3.084540 -2.000213
v 2.007975 3.085676 -0.169342
v 0.188019 3.084400 -2.000293
v 1.999996 3.084194 -0.178615
v 2.000015 0.063338 -0.176206
v 1.999856 3.084119 -1.998937
v -1.822129 0.062877 -0.176008
v -1.795294 0.061439 -0.173088
v 1.996626 -0.000201 -0.170907
v -1.822055 0.063067 -1.999910
v -0.210862 0.030320 -0.174775
v -0.208667 0.020811 -1.999835
v -0.210966 0.062672 -2.000046
v 1.997739 0.015965 -0.173819
v 0.184764 0.019403 -1.999698
v 0.187202 0.062665 -2.000156
vn -1.0000 -0.0000 0.0001
vn -0.0001 -0.0000 1.0000
vn -0.9720 -0.0005 0.2350
vn 0.0002 -0.0001 1.0000
vn -0.0001 1.0000 0.0001
vn -0.4464 -0.0155 0.8947
vn -0.5015 0.0002 0.8652
vn -0.9879 -0.1546 0.0123
vn -0.7317 -0.6817 -0.0025
vn -0.0002 1.0000 0.0001
vn -0.3567 0.9342 0.0005
vn -0.0004 1.0000 -0.0009
vn 0.0011 1.0000 0.0005
vn -0.0004 1.0000 0.0005
vn -0.0006 0.9610 0.2764
vn 0.3146 0.9492 0.0006
vn 0.9720 -0.0006 0.2348
vn 0.0010 -0.0002 1.0000
vn -0.0000 -0.0000 1.0000
vn 0.0001 0.0001 1.0000
vn 0.0007 1.0000 -0.0006
vn 0.0002 1.0000 0.0001
vn 0.0001 1.0000 0.0002
vn 0.0003 0.9822 0.1879
vn -0.0007 1.0000 -0.0004
vn 1.0000 -0.0000 0.0001
vn 1.0000 -0.0000 -0.0000
vn -0.9916 0.0002 0.1296
vn -0.4406 0.0004 0.8977
vn -0.0999 -0.9950 -0.0008
vn 0.0018 -1.0000 0.0008
vn 0.1103 -0.0495 0.9927
vn 0.0013 -0.1452 0.9894
vn 0.0078 0.0004 1.0000
vn -1.0000 0.0002 -0.0020
vn -0.0007 0.0098 1.0000
vn 0.9993 -0.0370 -0.0020
vn 0.0009 1.0000 -0.0019
vn 0.0015 -1.0000 0.0006
vn -0.0003 -1.0000 -0.0000
vn 0.0131 -0.9999 -0.0029
vn -0.9692 -0.2465 -0.0003
vn -0.9982 -0.0596 0.0010
vn -0.0035 0.1491 0.9888
vn 0.0008 -0.0297 0.9996
vn 0.0007 -0.1125 0.9937
vn 0.9920 0.0001 0.1264
vn -0.0023 -1.0000 -0.0063
vn 0.9985 -0.0555 0.0015
vn 0.0001 -1.0000 -0.0002
vn 0.0002 -0.0370 0.9993
vn 0.0001 -1.0000 -0.0000
vn 0.7364 -0.0004 0.6765
vn 0.3416 0.0012 0.9398
vn 0.0544 -0.9985 -0.0000
vn -0.0018 -1.0000 0.0009
vn -0.0853 -0.0858 0.9927
vn 0.0018 0.1849 0.9828
vn -0.0867 -0.0845 0.9926
vn -0.9999 0.0116 -0.0020
vn -0.0005 -1.0000 -0.0002
vn 0.4993 -0.8664 0.0008
vn 0.9075 -0.4196 -0.0167
vn 0.9976 -0.0691 -0.0022
vn -0.9025 0.4293 -0.0341
vn -0.1454 -0.1570 -0.9768
vn -1.0000 -0.0000 -0.0006
vn -1.0000 -0.0000 -0.0001
vn -1.0000 -0.0000 -0.0000
vn -0.0001 1.0000 -0.0044
vn -0.0000 1.0000 0.0001
vn -0.0001 1.0000 -0.0000
vn -0.0003 1.0000 -0.0002
vn 0.0003 1.0000 -0.0000
vn -0.0002 -0.0000 -1.0000
vn -0.0006 1.0000 0.0001
vn 0.0003 0.9874 -0.1581
vn -0.0000 1.0000 -0.0001
vn 0.0002 1.0000 -0.0001
vn 0.0002 1.0000 -0.0000
vn 1.0000 -0.0000 0.0003
vn 0.7581 -0.0005 -0.6522
vn 1.0000 -0.0000 -0.0001
vn 0.0001 -0.0000 -1.0000
vn 0.0007 0.0003 -1.0000
vn -0.9951 0.0988 0.0012
vn 0.9998 0.0185 0.0018
vn -0.9914 0.1305 -0.0017
vn -0.6654 -0.0004 -0.7465
vn -0.3890 0.0007 -0.9212
vn -0.0105 -0.1204 -0.9927
vn 0.1076 -0.0107 -0.9941
vn 0.0008 0.0096 -1.0000
vn -0.0488 -0.9979 -0.0430
vn -0.0002 -1.0000 -0.0001
vn 0.0020 1.0000 -0.0064
vn -0.9990 -0.0445 0.0008
vn -1.0000 0.0021 0.0001
vn -0.0013 0.0120 -0.9999
vn -0.0001 -0.0494 -0.9988
vn -0.0001 -0.0001 -1.0000
vn 0.0911 -0.0000 -0.9958
vn 0.0003 -0.0001 -1.0000
vn -0.9985 -0.0548 -0.0009
vn 0.0001 -0.0602 -0.9982
vn 0.9992 0.0397 -0.0002
vn 0.9998 0.0207 0.0001
vn 0.0001 -1.0000 -0.0003
vn 0.0006 -0.1773 -0.9842
vn -0.0018 1.0000 -0.0005
vn 0.0009 -1.0000 0.0052
vn -0.0036 -1.0000 0.0062
vn -0.9998 -0.0203 0.0002
vn -0.0015 1.0000 0.0009
vn 0.0002 -1.0000 -0.0008
vn 0.0017 0.1394 -0.9902
vn -0.1800 -0.1063 -0.9779
vn 0.4264 0.0009 -0.9045
vn 0.0672 -0.9977 0.0002
vn -0.0700 -0.0468 -0.9964
vn 0.1606 -0.0574 -0.9853
vn -0.0002 -0.0002 -1.0000
vn -0.1847 -0.0000 -0.9828
vn 0.9984 -0.0563 -0.0012
vt 0.008415 0.444543
vt 0.076644 0.465889
vt 0.431157 0.428788
vt 0.729708 0.085694
vt 0.472055 0.414369
vt 0.804612 0.462362
vt 0.756194 0.809085
vt 0.804630 0.750002
vt 0.685068 0.385568
vt 0.408044 0.849891
vt 0.002597 0.386849
vt 0.756075 0.817129
vt 0.068916 0.335364
vt 0.594052 0.991917
vt 0.960959 0.462269
vt 0.179159 0.914828
vt 0.553035 0.992704
vt 0.001318 0.211273
vt 0.941273 0.883372
vt 0.001003 0.386704
vt 0.476924 0.914454
vt 0.103314 0.995632
vt 0.001968 0.680221
vt 0.177566 0.973973
vt 0.751057 0.816418
vt 0.003262 0.708405
vt 0.173443 0.367184
vt 0.174662 0.297355
vt 0.426252 0.245772
vt 0.001478 0.708069
vt 0.425320 0.244923
vt 0.912808 0.028613
vt 0.174453 0.368483
vt 0.003539 0.704609
vt 0.428943 0.244905
vt 0.624167 0.235872
vt 0.454551 0.243089
vt 0.539248 0.218004
vt 0.428873 0.207797
vt 0.912808 0.049952
vt 0.428125 0.208091
vt 0.433816 0.991811
vt 0.174842 0.213498
vt 0.126721 0.689864
vt 0.179105 0.951709
vt 0.964677 0.917681
vt 0.130173 0.690908
vt 0.963463 0.917727
vt 0.126920 0.689010
vt 0.704807 0.892736
vt 0.007111 0.179720
vt 0.826778 0.816503
vt 0.058121 0.073347
vt 0.065713 0.084830
vt 0.145326 0.176767
vt 0.788670 0.884018
vt 0.175906 0.175999
vt 0.140486 0.178719
vt 0.412484 0.892735
vt 0.905768 0.412508
vt 0.419855 0.686613
vt 0.704717 0.719409
vt 0.001903 0.007347
vt 0.347229 0.418847
vt 0.336458 0.418589
vt 0.412549 0.719383
vt 0.350407 0.626464
vt 0.795458 0.320129
vt 0.124610 0.004952
vt 0.174149 0.008350
vt 0.293616 0.418466
vt 0.546061 0.952555
vt 0.215624 0.136327
vt 0.795322 0.791862
vt 0.213884 0.175409
vt 0.244288 0.115380
vt 0.178172 0.002115
vt 0.823944 0.873123
vt 0.507678 0.953346
vt 0.195806 0.371024
vt 0.476891 0.951839
vt 0.177506 0.936103
vt 0.423983 0.688503
vt 0.961018 0.750167
vt 0.408170 0.696450
vt 0.003852 0.676236
vt 0.717942 0.246010
vt 0.611058 0.245865
vt 0.236128 0.850064
vt 0.899826 0.016585
vt 0.721275 0.236017
vt 0.576933 0.220703
vt 0.721406 0.207670
vt 0.504061 0.910974
vt 0.235629 0.847605
vt 0.897412 0.017132
vt 0.991846 0.557580
vt 0.909684 0.224917
vt 0.897310 0.019653
vt 0.847424 0.999400
vt 0.994809 0.557605
vt 0.721356 0.244617
vt 0.900968 0.020038
vt 0.426644 0.027965
vt 0.720731 0.243008
vt 0.908582 0.448070
vt 0.900981 0.022790
vt 0.429222 0.025703
vt 0.191173 0.994567
vt 0.743163 0.020431
vt 0.693336 0.998918
vt 0.177202 0.679179
vt 0.528295 0.022775
vt 0.230101 0.658850
vt 0.922401 0.101462
vt 0.995123 0.595568
vt 0.847470 0.961361
vt 0.501103 0.910868
vt 0.002735 0.973839
vt 0.190963 0.995469
vt 0.742701 0.020769
vt 0.409362 0.026708
vt 0.724997 0.207509
vt 0.945212 0.449461
vt 0.504588 0.908047
vt 0.287792 0.511706
vt 0.659920 0.952667
vt 0.729633 0.243064
vt 0.528164 0.016820
vt 0.002741 0.935939
vt 0.634962 0.020210
vt 0.422875 0.517357
vt 0.962069 0.344082
vt 0.999104 0.296926
vt 0.990445 0.958493
vt 0.308308 0.910155
vt 0.422859 0.478176
vt 0.732165 0.242501
vt 0.530417 0.017224
vt 0.965943 0.075676
vt 0.654222 0.005805
vt 0.530680 0.019739
vt 0.654190 0.003202
vt 0.973241 0.457763
vt 0.656802 0.953928
vt 0.528311 0.021420
vt 0.229866 0.656518
vt 0.195836 0.384405
vt 0.232726 0.874286
vt 0.193964 0.656255
vt 0.298740 0.878065
vt 0.192667 0.658223
vt 0.631060 0.007299
vt 0.964985 0.096902
vt 0.615673 0.006164
vt 0.732055 0.204932
vt 0.134286 0.913007
vt 0.615750 0.003760
vt 0.999344 0.466335
vt 0.134645 0.910371
vt 0.911823 0.049920
vt 0.893613 0.013578
vt 0.445773 0.178776
vt 0.212002 0.368847
vt 0.285354 0.353649
vt 0.425591 0.206270
vt 0.891535 0.006701
vt 0.346589 0.368692
vt 0.802160 0.717890
vt 0.214423 0.213818
vt 0.372138 0.215046
vt 0.390583 0.196134
vt 0.646065 0.717924
vt 0.854680 0.897672
vt 0.212152 0.001269
vt 0.709248 0.901553
vt 0.180416 0.371766
vt 0.288194 0.877298
vt 0.184124 0.484347
vt 0.391480 0.173967
vt 0.390311 0.096801
vt 0.607058 0.717918
vt 0.709536 0.899961
vt 0.213036 0.002054
vt 0.177504 0.371695
vt 0.123068 0.375274
vt 0.189787 0.616924
vt 0.729600 0.204401
vt 0.132174 0.913424
vt 0.629064 0.008244
vt 0.389277 0.001236
vt 0.005195 0.381069
vt 0.431290 0.717909
vt 0.568868 0.114992
vt 0.718707 0.205211
vt 0.503461 0.914013
vt 0.196888 0.850045
vt 0.111995 0.850075
vt 0.910442 0.210005
vt 0.992574 0.595714
vt 0.501486 0.913533
vt 0.197564 0.847710
vt 0.192862 0.660588
vt 0.958875 0.102933
vt 0.133111 0.907371
vt 0.899809 0.004774
vt 0.581685 0.078843
vt 0.020739 0.850115
vt 0.802330 0.428817
vt 0.693358 0.961087
vt 0.346981 0.910163
vt 0.215593 0.679435
vt 0.990489 0.920789
vt 0.645461 0.424987
vt 0.392959 0.680317
vt 0.811647 0.920922
vt 0.906897 0.214424
vt 0.021624 0.696667
vt 0.646074 0.428522
vt 0.393255 0.676874
vt 0.193067 0.659361
vt 0.132492 0.908640
vt 0.631034 0.008244
vt 0.814009 0.958103
vt 0.607829 0.424805
vt 0.423983 0.305362
vt 0.962069 0.088783
vt 0.905705 0.031618
vt 0.606859 0.428725
vt 0.420114 0.304333
s 0
usemtl 272963_23_05_27_00_08_56_0
f 7/29/1 3/9/1 2/5/1
f 2/6/2 3/8/2 4/15/2
f 4/11/3 23/86/3 5/20/3
f 5/16/4 6/21/4 13/45/4
f 4/12/5 7/25/5 2/7/5
f 8/30/6 9/34/6 7/26/6
f 9/35/7 24/88/7 7/29/7
f 9/37/8 8/31/8 11/41/8
f 10/39/9 9/37/9 11/41/9
f 12/43/10 7/27/10 4/13/10
f 4/14/11 5/17/11 12/42/11
f 15/57/12 12/43/12 5/18/12
f 46/170/13 8/33/13 12/43/13
f 15/57/14 46/170/14 12/43/14
f 8/33/15 7/28/15 12/43/15
f 14/48/16 15/52/16 13/46/16
f 16/61/17 14/49/17 13/44/17
f 22/81/18 13/45/18 6/21/18
f 16/59/19 18/66/19 14/50/19
f 18/66/20 17/62/20 14/50/20
f 5/19/21 13/46/21 15/52/21
f 15/53/22 17/63/22 19/69/22
f 15/54/23 14/51/23 17/63/23
f 21/77/24 15/55/24 19/70/24
f 48/174/25 15/56/25 21/78/25
f 18/67/26 35/126/26 17/64/26
f 17/65/27 35/126/27 19/71/27
f 6/23/28 5/20/28 23/86/28
f 4/15/2 3/8/2 23/84/2
f 24/87/1 3/9/1 7/29/1
f 24/88/29 9/35/29 28/102/29
f 3/10/30 24/89/30 26/95/30
f 59/218/31 3/10/31 26/95/31
f 26/96/32 24/90/32 27/99/32
f 27/99/33 24/90/33 28/103/33
f 29/107/34 27/99/34 28/103/34
f 28/105/35 9/36/35 25/91/35
f 29/107/36 30/110/36 27/99/36
f 27/101/37 54/200/37 26/97/37
f 30/111/38 32/117/38 27/100/38
f 59/217/39 26/98/39 54/199/39
f 59/218/40 23/85/40 3/10/40
f 6/24/41 33/119/41 36/130/41
f 33/120/42 6/22/42 30/109/42
f 6/23/43 23/86/43 30/112/43
f 29/107/44 33/121/44 30/110/44
f 40/146/45 36/131/45 33/121/45
f 40/146/46 33/121/46 29/107/46
f 22/83/47 16/61/47 13/47/47
f 22/82/48 6/24/48 36/130/48
f 22/83/49 36/132/49 16/61/49
f 34/124/50 31/115/50 29/106/50
f 40/146/51 29/107/51 31/113/51
f 62/228/52 18/68/52 16/60/52
f 21/79/53 19/72/53 35/127/53
f 40/145/54 21/79/54 35/127/54
f 35/128/55 18/68/55 38/138/55
f 18/68/56 62/228/56 38/138/56
f 38/139/57 39/142/57 35/129/57
f 40/146/58 39/142/58 36/131/58
f 35/129/59 39/142/59 40/146/59
f 39/143/60 38/141/60 43/158/60
f 62/227/61 42/154/61 38/140/61
f 40/147/62 60/221/62 41/150/62
f 31/114/63 60/221/63 40/147/63
f 55/203/64 60/221/64 31/114/64
f 11/40/65 8/32/65 44/161/65
f 10/39/66 11/41/66 44/166/66
f 25/92/67 9/37/67 10/38/67
f 45/167/68 56/206/68 44/162/68
f 44/163/69 56/207/69 53/194/69
f 8/33/70 46/170/70 44/164/70
f 46/170/71 15/57/71 20/75/71
f 44/165/72 46/170/72 47/171/72
f 45/168/73 44/165/73 47/171/73
f 49/180/74 47/172/74 46/170/74
f 45/169/75 47/173/75 56/209/75
f 15/58/76 48/175/76 20/73/76
f 48/176/77 50/183/77 20/74/77
f 46/170/78 20/75/78 49/180/78
f 20/76/79 50/184/79 49/181/79
f 50/184/80 52/191/80 49/181/80
f 40/148/81 48/177/81 21/80/81
f 48/179/82 51/187/82 50/185/82
f 52/192/83 50/186/83 1/1/83
f 50/186/27 51/187/27 1/2/27
f 1/3/84 62/229/84 49/182/84
f 52/193/85 1/3/85 49/182/85
f 29/108/86 28/104/86 34/122/86
f 27/101/87 32/116/87 54/200/87
f 34/123/88 28/105/88 25/93/88
f 10/39/89 44/166/89 53/195/89
f 25/93/90 10/39/90 53/195/90
f 53/196/91 32/118/91 25/94/91
f 54/201/92 32/118/92 53/196/92
f 32/118/93 34/125/93 25/94/93
f 59/218/94 54/202/94 53/197/94
f 53/198/95 56/208/95 59/218/95
f 30/111/96 57/210/96 32/117/96
f 30/112/97 23/86/97 57/212/97
f 57/212/98 23/86/98 59/220/98
f 34/125/99 32/118/99 57/211/99
f 34/125/100 57/211/100 37/136/100
f 59/219/101 56/209/101 47/173/101
f 58/214/102 59/219/102 47/173/102
f 61/225/103 58/214/103 47/173/103
f 57/212/104 59/220/104 58/215/104
f 34/125/105 37/136/105 60/222/105
f 16/61/106 36/132/106 37/137/106
f 37/137/107 62/230/107 16/61/107
f 31/115/108 34/124/108 55/204/108
f 55/205/109 34/125/109 60/222/109
f 36/133/110 43/159/110 37/134/110
f 37/135/111 57/213/111 58/216/111
f 58/216/112 61/224/112 37/135/112
f 38/141/113 42/155/113 43/158/113
f 36/133/114 39/144/114 43/159/114
f 40/149/81 41/151/81 48/178/81
f 62/228/115 1/4/115 42/156/115
f 37/136/116 43/160/116 60/222/116
f 42/157/117 60/222/117 43/160/117
f 48/179/118 41/152/118 51/187/118
f 1/4/119 51/188/119 42/156/119
f 51/189/120 60/222/120 42/157/120
f 41/153/121 60/223/121 51/190/121
f 47/173/122 49/182/122 61/225/122
f 61/225/123 49/182/123 62/229/123
f 62/230/124 37/137/124 61/226/124
