# Blender 3.5.1
# www.blender.org
mtllib kaputtesMetallregal.mtl
o Cube.001
v -1.700274 0.040617 5.415668
v -2.000274 7.992860 5.495193
v 1.299726 0.045376 5.458216
v -2.000274 8.392726 5.484830
v -2.000274 7.707892 -5.501115
v 1.299726 0.023129 -4.808142
v -2.000274 8.107758 -5.511477
v 1.999726 7.992860 5.495193
v -1.700274 0.018205 5.016296
v 1.999726 8.392726 5.484830
v -2.000273 6.116902 5.391149
v 1.999726 7.707892 -5.501115
v 1.999726 8.107758 -5.511477
v -1.300274 0.040617 5.415668
v 1.299726 0.023129 -5.208142
v -1.300274 0.018205 5.016296
v -1.700273 0.023128 -4.808142
v 1.699726 0.023129 -4.808142
v 1.299726 0.018695 5.059107
v -2.000273 6.506243 5.299421
v 1.699726 0.023129 -5.208142
v -2.000273 2.691907 5.457963
v 1.699726 0.045376 5.458216
v -2.000273 3.594376 -5.315708
v -2.000273 3.983716 -5.407436
v 1.699726 0.018695 5.059107
v -2.000273 3.087223 5.396926
v 1.999724 6.116902 5.391149
v -2.000273 1.013396 -5.413214
v -1.700273 0.023128 -5.208142
v 1.999724 6.506243 5.299421
v 1.999724 3.594376 -5.315708
v -2.000273 1.408711 -5.474251
v 1.999724 3.983716 -5.407436
v 1.999724 2.691907 5.457963
v -1.300274 0.023128 -4.808142
v 1.999724 3.087223 5.396926
v -1.300274 0.023128 -5.208142
v 1.999724 1.013396 -5.413214
v 1.999724 1.408711 -5.474251
v -1.700273 1.106819 -4.808142
v -1.700273 1.511559 -4.808142
v -1.700273 1.045059 -5.208142
v -1.700273 1.449799 -5.208142
v -1.300274 1.045059 -5.208142
v -1.300274 1.449799 -5.208142
v -1.300274 1.106819 -4.808142
v -1.300274 1.511559 -4.808142
v -1.700273 3.713958 -4.808142
v -1.700273 4.124909 -4.808142
v -1.700273 3.619719 -5.208142
v -1.700273 4.030670 -5.208142
v -1.300274 3.619719 -5.208142
v -1.300274 4.030670 -5.208142
v -1.300274 3.713958 -4.808142
v -1.300274 4.124909 -4.808142
v 1.299726 2.603643 4.886302
v 1.299726 2.664908 5.283099
v 1.699726 2.664908 5.283099
v 1.699726 2.603643 4.886302
v 1.299726 3.065513 5.256319
v 1.299726 3.004248 4.859522
v 1.699726 3.004248 4.859522
v 1.699726 3.065513 5.256319
v 1.299726 6.038315 5.057586
v 1.299726 5.945330 4.662910
v 1.699726 5.945330 4.662910
v 1.699726 6.038315 5.057586
v 1.299726 6.442894 5.030540
v 1.299726 6.349909 4.635863
v 1.699726 6.349909 4.635863
v 1.699726 6.442894 5.030540
v 1.299726 1.045059 -5.208142
v 1.299726 1.106819 -4.808142
v 1.699726 1.106819 -4.808142
v 1.699726 1.045059 -5.208142
v 1.299726 1.511559 -4.808142
v 1.299726 1.449799 -5.208142
v 1.699726 1.449799 -5.208142
v 1.699726 1.511559 -4.808142
v 1.299726 3.619719 -5.208142
v 1.299726 3.713958 -4.808142
v 1.699726 3.713958 -4.808142
v 1.699726 3.619719 -5.208142
v 1.299726 4.124909 -4.808142
v 1.299726 4.030670 -5.208142
v 1.699726 4.030670 -5.208142
v 1.699726 4.124909 -4.808142
v -1.700274 2.601331 4.871332
v -1.700274 2.662657 5.268521
v -1.300274 2.662657 5.268521
v -1.300274 2.601331 4.871332
v -1.700274 3.002594 4.848814
v -1.700274 3.063920 5.246002
v -1.300274 3.063920 5.246002
v -1.300274 3.002594 4.848814
v -1.700274 6.043313 5.078800
v -1.700274 5.950157 4.683398
v -1.300274 5.950157 4.683398
v -1.300274 6.043313 5.078800
v -1.700274 6.448902 5.056038
v -1.700274 6.355746 4.660636
v -1.300274 6.355746 4.660636
v -1.300274 6.448902 5.056038
v -1.700273 7.725851 -4.808142
v -1.700273 7.715485 -5.208142
v -1.300274 7.715485 -5.208142
v -1.300274 7.725851 -4.808142
v 1.299726 7.967788 4.527708
v 1.299726 7.978159 4.927907
v 1.699726 7.967788 4.527708
v 1.699726 7.978159 4.927907
v 1.299726 7.725851 -4.808142
v 1.299726 7.715485 -5.208142
v 1.699726 7.715485 -5.208142
v 1.699726 7.725851 -4.808142
v -1.700274 7.968886 4.570108
v -1.700274 7.979254 4.970156
v -1.300274 7.968886 4.570108
v -1.300274 7.978950 4.958410
v -1.300274 7.979254 4.970156
vn -1.0000 -0.0000 -0.0000
vn -0.0000 -0.0000 -1.0000
vn 1.0000 -0.0000 -0.0000
vn -0.0000 -0.0000 1.0000
vn -0.0000 -1.0000 -0.0000
vn -0.0000 -0.1526 -0.9883
vn -0.0000 0.1526 0.9883
vn -0.0000 -0.9883 0.1526
vn -0.0000 0.9883 -0.1526
vn -0.0000 -0.2293 -0.9734
vn -0.0000 0.2293 0.9734
vn -0.0000 -0.9734 0.2293
vn -0.0000 0.9734 -0.2293
vn -0.0000 -0.0667 -0.9978
vn -0.0000 0.0667 0.9978
vn -0.0000 -0.9978 0.0667
vn -0.0000 -0.0560 -0.9984
vn -0.0000 0.0560 0.9984
vn -0.0000 -0.9984 0.0560
vn -0.0000 -0.0259 -0.9997
vn -0.0000 0.0259 0.9997
vn -0.0000 -0.9997 0.0259
vn -0.0000 0.9997 -0.0259
vt 0.375000 0.000000
vt 0.375000 1.000000
vt 0.125000 0.750000
vt 0.375000 0.000000
vt 0.375000 1.000000
vt 0.125000 0.750000
vt 0.375000 0.000000
vt 0.375000 1.000000
vt 0.125000 0.750000
vt 0.625000 0.000000
vt 0.625000 1.000000
vt 0.875000 0.750000
vt 0.375000 0.250000
vt 0.125000 0.500000
vt 0.375000 0.000000
vt 0.375000 1.000000
vt 0.125000 0.750000
vt 0.625000 0.250000
vt 0.875000 0.500000
vt 0.375000 0.750000
vt 0.375000 0.250000
vt 0.125000 0.500000
vt 0.625000 0.750000
vt 0.375000 0.000000
vt 0.375000 1.000000
vt 0.125000 0.750000
vt 0.375000 0.500000
vt 0.625000 0.500000
vt 0.375000 0.750000
vt 0.375000 0.250000
vt 0.125000 0.500000
vt 0.375000 0.500000
vt 0.375000 0.000000
vt 0.375000 1.000000
vt 0.125000 0.750000
vt 0.375000 0.750000
vt 0.375000 0.250000
vt 0.125000 0.500000
vt 0.625000 0.000000
vt 0.625000 1.000000
vt 0.875000 0.750000
vt 0.375000 0.500000
vt 0.375000 0.000000
vt 0.375000 1.000000
vt 0.125000 0.750000
vt 0.375000 0.750000
vt 0.375000 0.250000
vt 0.125000 0.500000
vt 0.625000 0.250000
vt 0.875000 0.500000
vt 0.375000 0.500000
vt 0.625000 0.000000
vt 0.625000 1.000000
vt 0.875000 0.750000
vt 0.375000 0.750000
vt 0.375000 0.250000
vt 0.125000 0.500000
vt 0.375000 0.250000
vt 0.125000 0.500000
vt 0.625000 0.750000
vt 0.375000 0.500000
vt 0.625000 0.250000
vt 0.875000 0.500000
vt 0.625000 0.500000
vt 0.375000 0.750000
vt 0.375000 0.750000
vt 0.625000 0.750000
vt 0.375000 0.500000
vt 0.375000 0.500000
vt 0.625000 0.500000
vt 0.408865 0.000000
vt 0.408865 1.000000
vt 0.143750 0.513915
vt 0.421513 0.000000
vt 0.421513 1.000000
vt 0.856250 0.515318
vt 0.406935 0.250000
vt 0.143750 0.504716
vt 0.419583 0.250000
vt 0.856250 0.506120
vt 0.406935 0.500000
vt 0.168750 0.504716
vt 0.419583 0.500000
vt 0.831250 0.506120
vt 0.408865 0.750000
vt 0.168750 0.513915
vt 0.421513 0.750000
vt 0.831250 0.515318
vt 0.490338 0.000000
vt 0.490338 1.000000
vt 0.143750 0.511851
vt 0.503181 0.000000
vt 0.503181 1.000000
vt 0.856250 0.513993
vt 0.487393 0.250000
vt 0.143750 0.502512
vt 0.500236 0.250000
vt 0.856250 0.504653
vt 0.487393 0.500000
vt 0.168750 0.502512
vt 0.500236 0.500000
vt 0.831250 0.504653
vt 0.490338 0.750000
vt 0.168750 0.511851
vt 0.503181 0.750000
vt 0.831250 0.513993
vt 0.331250 0.736854
vt 0.455960 0.250000
vt 0.331250 0.745979
vt 0.457043 0.000000
vt 0.457043 1.000000
vt 0.356250 0.745979
vt 0.457043 0.750000
vt 0.356250 0.736854
vt 0.455960 0.500000
vt 0.668750 0.746767
vt 0.469590 0.000000
vt 0.469590 1.000000
vt 0.668750 0.737642
vt 0.468507 0.250000
vt 0.643750 0.737642
vt 0.468507 0.500000
vt 0.643750 0.746766
vt 0.469590 0.750000
vt 0.331250 0.742211
vt 0.562697 0.000000
vt 0.562697 1.000000
vt 0.331250 0.732996
vt 0.560621 0.250000
vt 0.356250 0.732996
vt 0.560621 0.500000
vt 0.356250 0.742212
vt 0.562697 0.750000
vt 0.668750 0.743722
vt 0.575369 0.000000
vt 0.575369 1.000000
vt 0.668750 0.734506
vt 0.573292 0.250000
vt 0.643750 0.734506
vt 0.573292 0.500000
vt 0.643750 0.743722
vt 0.575369 0.750000
vt 0.331250 0.504716
vt 0.406935 0.250000
vt 0.331250 0.513915
vt 0.408865 0.000000
vt 0.408865 1.000000
vt 0.356250 0.513915
vt 0.408865 0.750000
vt 0.356250 0.504716
vt 0.406935 0.500000
vt 0.668750 0.515318
vt 0.421513 0.000000
vt 0.421513 1.000000
vt 0.668750 0.506120
vt 0.419583 0.250000
vt 0.643750 0.506120
vt 0.419583 0.500000
vt 0.643750 0.515318
vt 0.421513 0.750000
vt 0.331250 0.502512
vt 0.487393 0.250000
vt 0.331250 0.511851
vt 0.490338 0.000000
vt 0.490338 1.000000
vt 0.356250 0.511851
vt 0.490338 0.750000
vt 0.356250 0.502512
vt 0.487393 0.500000
vt 0.668750 0.513993
vt 0.503181 0.000000
vt 0.503181 1.000000
vt 0.668750 0.504653
vt 0.500236 0.250000
vt 0.643750 0.504654
vt 0.500236 0.500000
vt 0.643750 0.513993
vt 0.503181 0.750000
vt 0.143750 0.736510
vt 0.455850 0.250000
vt 0.143750 0.745643
vt 0.457068 0.000000
vt 0.457068 1.000000
vt 0.168750 0.745643
vt 0.457068 0.750000
vt 0.168750 0.736509
vt 0.455850 0.500000
vt 0.856250 0.737395
vt 0.468409 0.250000
vt 0.856250 0.746529
vt 0.469627 0.000000
vt 0.469627 1.000000
vt 0.831250 0.746529
vt 0.469627 0.750000
vt 0.831250 0.737395
vt 0.468409 0.500000
vt 0.143750 0.742707
vt 0.562879 0.000000
vt 0.562879 1.000000
vt 0.143750 0.733474
vt 0.560665 0.250000
vt 0.168750 0.733474
vt 0.560665 0.500000
vt 0.168750 0.742707
vt 0.562879 0.750000
vt 0.856250 0.744317
vt 0.575574 0.000000
vt 0.575574 1.000000
vt 0.856250 0.735085
vt 0.573360 0.250000
vt 0.831250 0.735085
vt 0.573360 0.500000
vt 0.831250 0.744317
vt 0.575574 0.750000
vt 0.615710 0.000000
vt 0.615710 1.000000
vt 0.143750 0.515755
vt 0.615386 0.250000
vt 0.143750 0.506661
vt 0.615386 0.500000
vt 0.168750 0.506661
vt 0.615710 0.750000
vt 0.168750 0.515755
vt 0.623963 0.250000
vt 0.331250 0.728004
vt 0.623453 0.000000
vt 0.623453 1.000000
vt 0.331250 0.737103
vt 0.623964 0.500000
vt 0.356250 0.728004
vt 0.623453 0.750000
vt 0.356250 0.737103
vt 0.615710 0.000000
vt 0.615710 1.000000
vt 0.331250 0.515755
vt 0.615386 0.250000
vt 0.331250 0.506661
vt 0.615386 0.500000
vt 0.356250 0.506661
vt 0.615710 0.750000
vt 0.356250 0.515755
vt 0.623850 0.250000
vt 0.143750 0.728968
vt 0.623473 0.000000
vt 0.623473 1.000000
vt 0.143750 0.738063
vt 0.623850 0.500000
vt 0.168750 0.728968
vt 0.623484 0.742660
vt 0.168750 0.737796
vt 0.623473 0.750000
vt 0.168750 0.738063
s 0
usemtl 280310_23_05_25_06_43_01_0.001
f 52/97/1 50/92/1 105/215/1 106/218/1
f 44/79/1 42/74/1 49/89/1 51/95/1
f 30/58/1 17/33/1 41/71/1 43/77/1
f 54/101/2 52/97/2 106/218/2 107/220/2
f 46/83/2 44/79/2 51/95/2 53/99/2
f 38/68/2 30/58/2 43/77/2 45/81/2
f 108/222/3 56/105/3 54/101/3 107/220/3
f 55/103/3 48/87/3 46/83/3 53/99/3
f 47/85/3 36/66/3 38/68/3 45/81/3
f 105/216/4 50/93/4 56/105/4 108/222/4
f 49/90/4 42/75/4 48/87/4 55/103/4
f 41/72/4 17/34/4 36/66/4 47/85/4
f 30/59/5 38/68/5 36/66/5 17/35/5
f 86/174/1 85/171/1 113/233/1 114/236/1
f 78/156/1 77/153/1 82/164/1 81/162/1
f 15/30/1 6/15/1 74/146/1 73/144/1
f 87/176/2 86/174/2 114/236/2 115/238/2
f 21/42/2 15/30/2 73/144/2 76/151/2
f 79/158/2 78/156/2 81/162/2 84/169/2
f 116/240/3 88/178/3 87/176/3 115/238/3
f 75/149/3 18/36/3 21/42/3 76/151/3
f 83/167/3 80/160/3 79/158/3 84/169/3
f 113/234/4 85/172/4 88/178/4 116/240/4
f 74/147/4 6/16/4 18/36/4 75/149/4
f 82/165/4 77/154/4 80/160/4 83/167/4
f 15/31/5 21/42/5 18/36/5 6/17/5
f 102/210/1 101/207/1 118/244/1 117/242/1
f 98/201/1 93/189/1 94/191/1 97/198/1
f 9/21/1 1/1/1 90/182/1 89/180/1
f 103/212/17 102/210/17 117/242/17 119/247/17
f 96/196/17 93/189/17 98/201/17 99/203/17
f 16/32/17 9/21/17 89/180/17 92/187/17
f 121/251/3 104/214/3 103/212/3 119/247/3 120/249/3
f 91/185/3 14/29/3 16/32/3 92/187/3
f 100/205/3 95/194/3 96/196/3 99/203/3
f 118/245/18 101/208/18 104/214/18 121/251/18
f 90/183/18 1/2/18 14/29/18 91/185/18
f 97/199/18 94/192/18 95/194/18 100/205/18
f 9/22/19 16/32/19 14/29/19 1/3/19
f 2/4/1 4/10/1 7/18/1 5/13/1
f 5/13/20 7/18/20 13/28/20 12/27/20
f 12/27/3 13/28/3 10/23/3 8/20/3
f 8/20/21 10/23/21 4/11/21 2/5/21
f 5/14/22 12/27/22 115/239/22 114/237/22 107/221/22 106/219/22
f 118/246/22 2/6/22 5/14/22 106/219/22 105/217/22 108/223/22 107/221/22 114/237/22 113/235/22 116/241/22 115/239/22 12/27/22 8/20/22 112/232/22 111/230/22 109/225/22 110/228/22 120/250/22 119/248/22 117/243/22
f 8/20/22 2/6/22 118/246/22 121/252/22 120/250/22 110/228/22 112/232/22
f 13/28/23 7/19/23 4/12/23 10/23/23
usemtl 
f 22/43/1 27/52/1 33/62/1 29/56/1
f 29/56/6 33/62/6 40/70/6 39/69/6
f 39/69/3 40/70/3 37/67/3 35/65/3
f 35/65/7 37/67/7 27/53/7 22/44/7
f 43/78/8 29/57/8 39/69/8 45/82/8
f 73/143/8 74/145/8 47/86/8 45/82/8 39/69/8 76/150/8
f 90/181/8 22/45/8 29/57/8 43/78/8 41/73/8 47/86/8 74/145/8 75/148/8 76/150/8 39/69/8 35/65/8 59/112/8 60/114/8 57/107/8 92/186/8 89/179/8
f 92/186/8 57/107/8 58/109/8 22/45/8 90/181/8 91/184/8
f 59/112/8 35/65/8 22/45/8 58/109/8
f 95/193/9 94/190/9 27/54/9 61/116/9 62/119/9 96/195/9
f 63/121/9 64/123/9 37/67/9 40/70/9 79/157/9 80/159/9 77/152/9 48/88/9 42/76/9 44/80/9 33/63/9 27/54/9 94/190/9 93/188/9 96/195/9 62/119/9
f 78/155/9 79/157/9 40/70/9 46/84/9 48/88/9 77/152/9
f 61/116/9 27/54/9 37/67/9 64/123/9
f 46/84/9 40/70/9 33/63/9 44/80/9
f 11/24/1 20/39/1 25/49/1 24/47/1
f 24/47/10 25/49/10 34/64/10 32/61/10
f 32/61/3 34/64/3 31/60/3 28/55/3
f 28/55/11 31/60/11 20/40/11 11/25/11
f 51/96/12 24/48/12 32/61/12 53/100/12
f 81/161/12 82/163/12 55/104/12 53/100/12 32/61/12 84/168/12
f 99/202/12 66/128/12 65/125/12 11/26/12 97/197/12 100/204/12
f 84/168/12 32/61/12 28/55/12 68/132/12 67/130/12 66/128/12 99/202/12 98/200/12 97/197/12 11/26/12 24/48/12 51/96/12 49/91/12 55/104/12 82/163/12 83/166/12
f 68/132/12 28/55/12 11/26/12 65/125/12
f 104/213/13 101/206/13 20/41/13 69/134/13 70/137/13 103/211/13
f 50/94/13 52/98/13 25/50/13 20/41/13 101/206/13 102/209/13 103/211/13 70/137/13 71/139/13 72/141/13 31/60/13 34/64/13 87/175/13 88/177/13 85/170/13 56/106/13
f 86/173/13 87/175/13 34/64/13 54/102/13 56/106/13 85/170/13
f 69/134/13 20/41/13 31/60/13 72/141/13
f 54/102/13 34/64/13 25/50/13 52/98/13
f 70/138/1 69/135/1 110/226/1 109/224/1
f 66/129/1 62/120/1 61/117/1 65/126/1
f 19/37/1 3/7/1 58/110/1 57/108/1
f 71/140/14 70/138/14 109/224/14 111/229/14
f 26/51/14 19/37/14 57/108/14 60/115/14
f 63/122/14 62/120/14 66/129/14 67/131/14
f 112/231/3 72/142/3 71/140/3 111/229/3
f 59/113/3 23/46/3 26/51/3 60/115/3
f 68/133/3 64/124/3 63/122/3 67/131/3
f 110/227/15 69/136/15 72/142/15 112/231/15
f 58/111/15 3/8/15 23/46/15 59/113/15
f 65/127/15 61/118/15 64/124/15 68/133/15
f 19/38/16 26/51/16 23/46/16 3/9/16
