# Blender v3.5.1 OBJ File: ''
# www.blender.org
mtllib notebook.mtl
o 282297_23_05_24_17_32_28_1
v 0.950587 0.015887 -1.281349
v 0.943818 0.054965 -1.328162
v 0.978754 0.060030 -1.315639
v -0.479539 1.811580 1.188906
v -0.471153 1.789155 1.212799
v -0.369113 1.811530 1.171265
v -0.368795 1.788219 1.195439
v -0.496700 1.778305 1.188755
v 1.000194 0.051741 -1.284017
v -0.870750 1.780586 -0.988852
v -0.495755 0.189805 1.193749
v -0.467895 0.179460 1.212468
v 1.351249 0.033329 0.852380
v -0.759159 1.813793 -1.016728
v -0.350850 1.784729 1.168565
v -0.371871 0.177983 1.195792
v -0.358426 0.187610 1.188183
v -0.681368 0.030294 -1.029035
v -0.350157 0.261450 1.175139
v -0.366703 1.718189 1.074965
v -0.365285 0.258218 1.074995
v -0.416696 0.254785 1.080736
v -0.416775 1.714710 1.080566
v -0.727206 1.793830 -1.017637
v -0.759219 1.715489 -0.914092
v -0.710094 1.717826 -0.924418
v -0.854893 1.811010 -0.995356
v -0.870433 0.180920 -0.988831
v -0.479078 0.158569 1.191043
v -0.289687 0.266565 1.175636
v -0.336703 0.253289 1.193099
v -0.265694 0.238790 1.179807
v -0.334064 0.185083 1.196295
v -0.374836 0.155491 1.170687
v -0.297437 0.166058 1.185619
v -0.257500 0.216797 1.159252
v 0.417167 0.198029 1.055572
v 0.999133 0.175060 -1.302976
v -0.352755 0.172896 1.152823
v 0.942648 0.188285 -1.328307
v -0.693536 0.271987 -1.026342
v -0.722989 0.172979 -1.001067
v -0.266573 0.232930 1.123408
v -0.632660 0.233004 -1.008711
v 1.318086 0.233724 0.857143
v -0.655796 0.253485 -1.041394
v -0.844341 0.155327 -0.995591
v -0.309338 0.064489 1.185313
v -0.354916 0.058817 1.137455
v -0.311335 0.014953 1.132975
v 1.337840 0.226403 0.869828
v -0.303638 0.031350 1.164255
v 1.316835 0.016660 0.865716
v -0.708713 0.256671 -0.924741
v 0.953406 0.212972 -1.313560
v 0.983637 0.216916 -1.286253
v -0.759189 0.253529 -0.912925
v 0.950324 0.233491 -1.282077
v 1.336577 0.059984 0.900854
v 1.338494 0.183496 0.901456
v -0.685062 0.178290 -1.049648
v 1.368626 0.185179 0.849775
v 1.369833 0.073421 0.852190
v -0.643096 0.211019 -1.044161
v -0.855750 1.789214 -1.019134
v -0.752919 1.787501 -1.037588
v -0.854774 0.180866 -1.020140
v -0.725428 0.259846 -1.019074
v -0.736541 0.240694 -1.031636
v -0.755560 0.181078 -1.037582
v -0.749062 0.155597 -1.014755
v -0.719929 0.056922 -0.994281
v -0.730412 0.185437 -1.026327
v -0.688156 0.068457 -1.049205
v -0.673058 0.014892 -0.997634
v -0.192038 0.207736 -1.121931
v 0.083151 0.188692 -1.179656
vt 0.031991 0.029169
vt 0.030753 0.028241
vt 0.030571 0.026738
vt 0.523549 0.060597
vt 0.518682 0.057487
vt 0.522370 0.040238
vt 0.065926 0.438135
vt 0.063994 0.434838
vt 0.045888 0.437875
vt 0.495344 0.335143
vt 0.498923 0.334005
vt 0.495795 0.331792
vt 0.036342 0.018047
vt 0.080115 0.334884
vt 0.040474 0.726295
vt 0.044055 0.729942
vt 0.496394 0.613754
vt 0.390666 0.026926
vt 0.031626 0.031971
vt 0.953793 0.042006
vt 0.939933 0.680716
vt 0.935135 0.683133
vt 0.937621 0.679000
vt 0.062707 0.730451
vt 0.067042 0.728701
vt 0.008189 0.058574
vt 0.031882 0.326274
vt 0.000605 0.034891
vt 0.935379 0.959545
vt 0.916545 0.695384
vt 0.916440 0.958025
vt 0.885134 0.715000
vt 0.601143 0.705193
vt 0.884435 0.706540
vt 0.505520 0.682415
vt 0.934320 0.680236
vt 0.002234 0.552070
vt 0.011339 0.186418
vt 0.002141 0.186294
vt 0.524012 0.695503
vt 0.079874 0.331752
vt 0.087715 0.665252
vt 0.040129 0.729322
vt 0.040623 0.730845
vt 0.602450 0.713721
vt 0.939601 0.961471
vt 0.639760 0.085254
vt 0.637964 0.082769
vt 0.637105 0.085667
vt 0.068362 0.721813
vt 0.067310 0.718427
vt 0.960048 0.680295
vt 0.956485 0.689541
vt 0.967203 0.690294
vt 0.954493 0.684084
vt 0.060093 0.733281
vt 0.965575 0.694030
vt 0.918463 0.116875
vt 0.919135 0.120502
vt 0.917157 0.120788
vt 0.970009 0.684417
vt 0.962371 0.674996
vt 0.967091 0.551943
vt 0.949505 0.186534
vt 0.956212 0.163947
vt 0.955785 0.186499
vt 0.955900 0.601336
vt 0.957425 0.598452
vt 0.937319 0.601164
vt 0.933756 0.602313
vt 0.931498 0.602720
vt 0.930438 0.599451
vt 0.913824 0.119698
vt 0.950926 0.163408
vt 0.887306 0.267226
vt 0.898188 0.374800
vt 0.506172 0.350699
vt 0.901866 0.290986
vt 0.930437 0.596423
vt 0.510887 0.192859
vt 0.516918 0.197317
vt 0.513317 0.188253
vt 0.509924 0.382342
vt 0.890167 0.382310
vt 0.887789 0.402062
vt 0.670374 0.377288
vt 0.896918 0.380067
vt 0.921490 0.285355
vt 0.935217 0.599580
vt 0.972992 0.689437
vt 0.991796 0.685080
vt 0.537362 0.306061
vt 0.539113 0.323065
vt 0.539207 0.305938
vt 0.913710 0.100112
vt 0.872813 0.096102
vt 0.910637 0.096222
vt 0.938494 0.214723
vt 0.945596 0.216322
vt 0.941059 0.238282
vt 0.544598 0.950297
vt 0.543114 0.708067
vt 0.539907 0.708297
vt 0.963149 0.382387
vt 0.448366 0.325125
vt 0.449947 0.327597
vt 0.444266 0.323377
vt 0.447043 0.032351
vt 0.523287 0.312423
vt 0.484641 0.294148
vt 0.867662 0.262430
vt 0.870680 0.269358
vt 0.522165 0.341401
vt 0.148012 0.990977
vt 0.153225 0.994521
vt 0.147443 0.995973
vt 0.520485 0.334246
vt 0.154666 0.989891
vt 0.153685 0.998017
vt 0.495748 0.617554
vt 0.509634 0.645716
vt 0.893708 0.649300
vt 0.510398 0.650914
vt 0.656618 0.121355
vt 0.907846 0.118995
vt 0.997626 0.683630
vt 0.993075 0.382380
vt 0.969101 0.382119
vt 0.999375 0.383260
vt 0.837670 0.638826
vt 0.895490 0.388025
vt 0.857518 0.562523
vt 0.627714 0.164261
vt 0.511920 0.239597
vt 0.517747 0.240004
vt 0.514773 0.244866
vt 0.891239 0.645545
vt 0.939341 0.244229
vt 0.517602 0.218886
vt 0.988948 0.376641
vt 0.518794 0.212763
vt 0.512690 0.215262
vt 0.450902 0.026171
vt 0.467828 0.994780
vt 0.492613 0.719884
vt 0.492550 0.982720
vt 0.100636 0.982728
vt 0.010874 0.551452
vt 0.952821 0.060504
vt 0.886960 0.812698
vt 0.887529 0.815055
vt 0.889448 0.812077
vt 0.967317 0.051362
vt 0.986878 0.051484
vt 0.969523 0.048673
vt 0.984654 0.329971
vt 0.952954 0.038386
vt 0.956505 0.057452
vt 0.966503 0.048509
vt 0.522505 0.959040
vt 0.504752 0.959673
vt 0.962539 0.054944
vt 0.961148 0.318482
vt 0.785484 0.132872
vt 0.503368 0.124707
vt 0.786468 0.125029
vt 0.965999 0.329047
vt 0.100877 0.718084
vt 0.905525 0.285771
vt 0.602696 0.109186
vt 0.075704 0.335282
vt 0.075656 0.613702
vt 0.959871 0.284788
vt 0.079643 0.613829
vt 0.921127 0.282471
vt 0.923950 0.284680
vt 0.502521 0.133004
vt 0.505108 0.345297
vt 0.501773 0.961646
vt 0.503378 0.346655
vt 0.968233 0.332638
vt 0.901055 0.286368
vt 0.901120 0.283413
vt 0.963422 0.331023
vt 0.962382 0.327391
vt 0.615014 0.169225
vt 0.611659 0.165680
vt 0.565351 0.662984
vt 0.559502 0.661748
vt 0.811048 0.658889
vt 0.816447 0.662376
vt 0.505426 0.359644
vt 0.505388 0.379607
vt 0.504746 0.382922
vt 0.628514 0.184208
vt 0.529958 0.102809
vt 0.535581 0.100973
vt 0.534188 0.119645
vt 0.623285 0.188010
vt 0.629506 0.189896
vt 0.619792 0.154041
vt 0.634214 0.151468
vt 0.632123 0.159918
vt 0.036940 0.323085
vt 0.934963 0.083907
vt 0.932196 0.084541
vt 0.933864 0.086764
vt 0.626703 0.147986
vt 0.906105 0.073661
vt 0.904366 0.075922
vt 0.536120 0.094561
vt 0.898595 0.428141
vt 0.897140 0.426561
vt 0.899849 0.426922
vt 0.378471 0.993716
vt 0.464770 0.999570
vt 0.780045 0.152354
vt 0.081125 0.874345
vt 0.084389 0.942771
vt 0.081809 0.795761
vt 0.324046 0.989514
vt 0.703838 0.584198
vt 0.513100 0.610858
vt 0.513059 0.531762
vn 0.3285 -0.7012 -0.6328
vn 0.1059 0.7433 0.6605
vn 0.1232 0.7152 0.6880
vn -0.7155 0.3663 0.5949
vn 0.4842 -0.7081 -0.5139
vn -0.8788 0.4525 0.1514
vn -0.5580 -0.0013 0.8298
vn -0.6858 0.0019 0.7278
vn 0.5791 -0.8088 -0.1021
vn 0.0006 1.0000 0.0009
vn 0.7599 0.4729 0.4460
vn 0.4929 -0.0008 0.8701
vn -0.1040 -0.7709 -0.6285
vn 0.9856 0.0034 -0.1693
vn 0.9860 -0.0003 -0.1668
vn 0.9856 0.0094 -0.1688
vn 0.9888 0.0010 -0.1494
vn -0.1112 -0.0001 -0.9938
vn -0.1110 -0.0001 -0.9938
vn 0.8120 0.5672 -0.1374
vn 0.0680 -0.9976 -0.0121
vn 0.9855 0.0067 -0.1695
vn 0.9855 0.0143 -0.1693
vn -0.8636 0.4818 0.1483
vn -0.9856 -0.0001 0.1693
vn -0.9856 -0.0001 0.1692
vn -0.6089 -0.3852 0.6934
vn 0.8318 0.0028 0.5551
vn 0.8355 0.0029 0.5495
vn 0.8333 0.0028 0.5528
vn 0.8370 0.0029 0.5472
vn -0.0786 0.8841 0.4606
vn -0.7398 0.1965 0.6435
vn 0.1943 0.0534 0.9795
vn 0.2401 0.3438 0.9078
vn 0.1672 0.0001 0.9859
vn 0.1684 0.0000 0.9857
vn 0.1700 -0.0001 0.9855
vn 0.1711 -0.0001 0.9853
vn 0.1026 -0.7469 0.6570
vn 0.1038 -0.7452 0.6588
vn 0.1068 -0.7410 0.6630
vn -0.3127 0.0324 0.9493
vn -0.2614 -0.8035 0.5349
vn 0.2618 -0.0372 0.9644
vn 0.7506 -0.2798 0.5986
vn 0.1515 0.3593 0.9209
vn 0.3313 0.0451 -0.9425
vn 0.1079 -0.7394 0.6646
vn 0.6741 -0.5880 0.4472
vn 0.7390 -0.5717 0.3564
vn -0.3030 -0.8961 0.3243
vn 0.4097 0.0026 -0.9122
vn -0.0844 0.9963 0.0179
vn 0.5663 -0.8184 -0.0974
vn 0.9177 0.3935 -0.0552
vn -0.0004 1.0000 0.0000
vn -0.0005 1.0000 0.0001
vn 0.7578 0.6396 -0.1288
vn 0.7599 0.6370 -0.1292
vn 0.7547 0.6434 -0.1283
vn -0.0283 -0.9996 0.0062
vn -0.5040 0.0565 0.8619
vn -0.7171 -0.0797 0.6924
vn -0.5429 -0.5995 0.5881
vn 0.8149 -0.0812 -0.5738
vn 0.0660 0.9160 0.3956
vn 0.1352 0.6282 0.7662
vn -0.8174 -0.4025 0.4121
vn 0.0746 -0.8907 0.4485
vn -0.0615 0.9981 0.0099
vn -0.0655 0.9978 0.0105
vn -0.0639 0.9979 0.0103
vn 0.5538 0.4775 -0.6821
vn -0.0599 0.9982 0.0097
vn 0.4483 0.3063 -0.8398
vn 0.3382 0.8032 -0.4904
vn -0.8666 -0.4757 0.1507
vn 0.4366 0.8965 -0.0757
vn -0.9855 -0.0076 0.1693
vn -0.9855 -0.0127 0.1690
vn -0.9855 -0.0042 0.1694
vn 0.1448 -0.5128 0.8462
vn 0.1640 0.2330 0.9585
vn 0.1304 -0.6597 0.7401
vn 0.1713 -0.0230 0.9849
vn 0.1703 -0.0074 0.9854
vn 0.0009 -1.0000 0.0001
vn 0.0008 -1.0000 0.0000
vn 0.0011 -1.0000 0.0002
vn 0.1424 0.5887 0.7957
vn 0.0698 0.9072 0.4149
vn -0.1685 -0.0002 -0.9857
vn -0.1686 -0.0016 -0.9857
vn -0.1687 -0.0026 -0.9857
vn 0.7993 0.3644 0.4779
vn 0.3838 0.9211 -0.0661
vn 0.7637 0.6327 -0.1282
vn 0.8634 0.0202 0.5041
vn 0.8275 -0.0156 0.5612
vn 0.8107 -0.3736 0.4508
vn 0.8966 -0.4163 -0.1509
vn 0.5271 -0.6671 0.5264
vn 0.4127 -0.9082 -0.0701
vn 0.9856 0.0070 -0.1692
vn -0.9856 -0.0002 0.1693
vn -0.0938 0.8299 -0.5500
vn 0.9856 -0.0001 -0.1692
vn 0.9856 -0.0000 -0.1693
vn 0.0459 -0.9989 -0.0077
vn -0.0280 0.9996 0.0046
vn -0.8665 0.3832 -0.3200
vn -0.1321 0.5967 -0.7916
vn -0.1741 0.0004 -0.9847
vn -0.1756 0.0005 -0.9845
vn -0.1766 0.0005 -0.9843
vn 0.5257 0.8456 -0.0928
vn -0.1691 0.7296 -0.6627
vn 0.3738 0.6293 -0.6814
vn 0.9837 0.0010 -0.1798
vn 0.9840 0.0011 -0.1783
vn 0.9844 0.0012 -0.1758
vn 0.9847 0.0013 -0.1744
vn 0.6125 0.0034 -0.7905
vn 0.2057 -0.0000 0.9786
vn -0.1731 0.0003 -0.9849
vn 0.0027 -1.0000 -0.0005
vn -0.9855 -0.0161 0.1688
vn -0.8275 -0.5431 0.1425
vn -0.8949 -0.0002 -0.4463
vn -0.8961 -0.0003 -0.4439
vn -0.8956 -0.0003 -0.4449
vn -0.6803 -0.7239 0.1147
vn -0.8944 -0.0002 -0.4473
vn -0.7007 -0.6221 -0.3494
vn 0.2279 0.0008 0.9737
vn -0.4302 0.8999 0.0714
vn -0.3361 0.9374 0.0911
vn 0.7478 0.0015 -0.6639
vn -0.3958 0.6531 -0.6456
vn -0.1359 -0.7149 -0.6859
vn -0.1256 -0.6795 -0.7228
vn 0.6470 -0.5911 -0.4817
vn 0.4195 -0.5440 -0.7267
vn -0.3160 -0.8845 -0.3434
vn 0.5517 0.8287 -0.0947
vn 0.7525 0.6460 -0.1279
vn 0.4151 0.9068 -0.0739
vn 0.8575 0.2844 -0.4288
vn 0.5879 -0.8026 -0.1007
vn -0.7891 0.0198 -0.6139
vn -0.8596 -0.0524 -0.5083
vn -0.7504 -0.4082 -0.5198
vn 0.2998 -0.0005 -0.9540
vn -0.1438 0.1631 -0.9761
vn 0.0644 0.0841 -0.9944
vn 0.0006 -1.0000 -0.0001
vn 0.4141 -0.0414 -0.9093
vn -0.4699 -0.1359 -0.8722
vn -0.1709 0.3881 -0.9056
vn -0.6981 -0.7059 0.1202
vn -0.6590 -0.7438 0.1119
vn -0.6638 -0.7259 -0.1804
vn -0.0734 -0.9029 -0.4235
vn 0.9041 0.3975 -0.1570
vn 0.9852 -0.0177 -0.1703
vn -0.1535 0.3919 -0.9071
vn -0.1400 0.5520 -0.8220
vn -0.0877 0.8579 -0.5062
vn -0.1185 0.6874 -0.7165
vn -0.1604 0.3598 -0.9191
vn -0.1648 0.2529 -0.9534
vn -0.1556 0.4053 -0.9009
vn -0.1685 0.0008 -0.9857
vn -0.1514 -0.4828 -0.8625
vn -0.0003 1.0000 -0.0001
usemtl 282297_23_05_24_17_32_28_1
s 1
f 1/1/1 2/2/1 3/3/1
f 4/4/2 5/5/2 6/6/2
f 7/7/3 6/8/3 5/9/3
f 8/10/4 5/11/4 4/12/4
f 9/13/5 1/1/5 3/3/5
f 4/12/6 10/14/6 8/10/6
f 11/15/7 12/16/7 5/9/7
f 11/17/8 5/11/8 8/10/8
f 13/18/9 1/19/9 9/13/9
f 6/6/10 14/20/10 4/4/10
f 7/21/11 15/22/11 6/23/11
f 16/24/12 17/25/12 7/7/12
f 1/26/13 18/27/13 2/28/13
f 15/22/14 19/29/15 20/30/16
f 19/29/17 21/31/17 20/30/17
f 20/32/18 22/33/19 23/34/18
f 24/35/20 6/36/20 15/22/20
f 25/37/21 20/38/21 23/39/21
f 15/22/14 20/30/16 24/35/22
f 26/40/23 24/35/22 20/30/16
f 10/14/24 4/12/24 27/41/24
f 28/42/25 11/17/26 8/10/26
f 11/43/27 29/44/27 12/16/27
f 22/33/19 20/32/18 21/45/19
f 15/22/28 7/21/29 19/29/30
f 19/29/30 7/21/29 17/46/31
f 30/47/32 19/48/32 31/49/32
f 17/25/33 31/50/33 19/51/33
f 32/52/34 31/53/34 33/54/34
f 32/52/35 30/55/35 31/53/35
f 5/9/36 12/16/37 7/7/38
f 7/7/38 12/16/37 16/24/39
f 16/24/40 12/16/41 34/56/42
f 31/53/43 17/57/43 33/54/43
f 35/58/44 33/59/44 17/60/44
f 32/52/45 33/54/45 35/61/45
f 32/52/46 35/61/46 36/62/46
f 37/63/47 36/62/47 35/61/47
f 2/64/48 38/65/48 3/66/48
f 12/67/41 29/68/49 34/69/42
f 16/70/50 34/69/50 17/71/50
f 34/69/51 39/72/51 17/71/51
f 35/58/52 17/60/52 39/73/52
f 40/74/53 38/65/53 2/64/53
f 19/75/54 30/76/54 41/77/54
f 42/78/55 39/79/55 34/69/55
f 36/80/56 43/81/56 32/82/56
f 44/83/57 43/84/58 45/85/57
f 46/86/59 30/76/60 32/87/61
f 29/68/62 47/88/62 34/89/62
f 35/61/63 39/90/63 48/91/63
f 48/92/64 39/93/64 49/94/64
f 48/95/65 49/96/65 50/97/65
f 9/98/66 3/99/66 38/100/66
f 45/101/67 43/102/67 36/103/67
f 37/63/68 51/104/68 36/62/68
f 52/105/69 48/106/69 50/107/69
f 53/108/70 52/109/70 50/110/70
f 22/111/71 21/112/72 54/113/73
f 38/114/74 55/115/74 56/116/74
f 54/113/73 57/117/75 22/111/71
f 40/118/76 55/115/76 38/114/76
f 56/116/77 55/115/77 58/119/77
f 29/120/78 11/17/78 28/42/78
f 58/121/79 51/122/79 56/123/79
f 42/124/80 49/96/81 39/125/82
f 48/91/83 52/126/83 59/127/83
f 37/63/84 35/61/84 60/128/84
f 53/129/85 59/127/85 52/126/85
f 60/128/86 35/61/86 48/91/86
f 60/128/87 48/91/87 59/127/87
f 50/110/88 1/19/89 53/108/90
f 37/63/91 60/128/91 51/104/91
f 45/130/92 36/131/92 51/132/92
f 2/64/93 61/133/94 40/74/95
f 60/134/96 62/135/96 51/136/96
f 51/122/97 58/121/97 45/137/97
f 56/138/98 51/136/98 62/135/98
f 62/135/99 60/134/99 63/139/99
f 59/127/100 63/140/100 60/128/100
f 13/141/101 63/139/101 59/142/101
f 9/98/102 63/139/102 13/141/102
f 59/143/103 53/108/103 13/18/103
f 13/18/104 53/108/104 1/19/104
f 62/135/105 63/139/105 38/100/105
f 10/14/106 28/42/25 8/10/26
f 64/144/107 58/119/107 55/115/107
f 57/145/108 25/146/108 23/147/109
f 26/148/110 20/38/110 25/37/110
f 4/4/111 14/20/111 27/149/111
f 27/150/112 65/151/112 10/152/112
f 66/153/113 65/154/113 14/155/113
f 66/153/114 67/156/115 65/154/116
f 24/157/117 14/20/117 6/6/117
f 65/158/118 27/149/118 14/20/118
f 24/159/119 66/153/119 14/155/119
f 26/40/120 54/160/121 24/35/122
f 54/160/121 68/161/123 24/35/122
f 24/162/124 69/163/124 66/153/124
f 25/164/125 54/165/125 26/166/125
f 67/156/115 66/153/114 70/167/126
f 23/147/109 22/168/109 57/145/108
f 34/89/127 47/88/127 71/169/127
f 49/96/81 42/124/80 72/170/128
f 19/75/129 54/113/129 21/112/129
f 10/14/130 65/171/131 67/172/132
f 29/68/133 28/173/133 47/88/133
f 10/14/130 67/172/132 28/174/134
f 67/175/135 47/88/135 28/176/135
f 57/177/136 54/165/136 25/164/136
f 54/113/137 19/75/137 41/77/137
f 54/113/138 41/77/138 68/178/138
f 68/161/139 69/179/139 24/35/139
f 41/77/140 69/180/140 68/178/140
f 47/88/141 67/175/141 71/169/141
f 70/167/142 71/181/142 67/156/142
f 42/182/143 71/169/143 73/183/143
f 71/184/144 70/167/144 73/185/144
f 61/133/145 42/186/145 73/187/145
f 32/188/146 43/189/146 44/190/146
f 44/190/147 46/191/59 32/188/61
f 41/77/148 30/76/148 46/192/148
f 46/193/149 44/83/149 64/194/149
f 34/69/150 71/169/150 42/78/150
f 74/195/151 42/186/151 61/133/151
f 74/196/152 72/197/152 42/198/152
f 72/199/153 74/195/153 18/200/153
f 66/153/154 69/163/154 70/167/154
f 69/201/155 46/202/155 61/133/155
f 46/202/156 64/203/156 61/133/156
f 50/110/88 75/204/157 1/19/89
f 73/185/158 70/167/158 69/163/158
f 61/205/159 73/206/159 69/207/159
f 69/201/160 41/208/160 46/202/160
f 50/209/161 49/210/161 72/197/161
f 72/197/162 75/211/162 50/209/162
f 18/212/163 75/213/163 72/214/163
f 18/27/164 1/26/164 75/204/164
f 56/138/165 62/135/165 38/100/165
f 38/100/166 63/139/166 9/98/166
f 64/144/167 55/115/167 76/215/167
f 55/115/168 40/118/168 76/215/168
f 64/144/169 44/216/169 58/119/169
f 40/118/170 64/144/170 76/215/170
f 61/133/171 64/203/171 77/217/171
f 77/218/172 40/219/172 61/220/172
f 77/221/173 64/144/173 40/118/173
f 61/133/94 2/64/93 74/195/174
f 18/200/175 74/195/175 2/64/175
f 45/222/57 58/223/176 44/224/57
