# Blender v3.5.1 OBJ File: ''
# www.blender.org
mtllib notebook.mtl
o 282297_23_05_24_17_32_28_1
v -0.471153 1.597218 1.212799
v 0.943818 -0.136972 -1.328162
v -0.479539 1.619643 1.188906
v 0.978754 -0.131907 -1.315639
v 0.950587 -0.176050 -1.281349
v -0.368795 1.596282 1.195439
v -0.496700 1.586368 1.188755
v 1.000194 -0.140196 -1.284017
v -0.854893 1.619073 -0.995356
v -0.759159 1.621856 -1.016728
v -0.467895 -0.012477 1.212468
v -0.369113 1.619593 1.171265
v -0.350850 1.592792 1.168565
v -0.727206 1.601893 -1.017637
v -0.371871 -0.013954 1.195792
v -0.358426 -0.004327 1.188183
v -0.366703 1.526252 1.074965
v -0.416775 1.522773 1.080566
v -0.416696 0.062848 1.080736
v -0.365285 0.066281 1.074995
v -0.759219 1.523552 -0.914092
v -0.710094 1.525889 -0.924418
v -0.870433 -0.011017 -0.988831
v -0.479078 -0.033368 1.191043
v -0.495755 -0.002132 1.193749
v -0.336703 0.061352 1.193099
v -0.350157 0.069513 1.175139
v -0.289687 0.074628 1.175636
v -0.334064 -0.006854 1.196295
v -0.265694 0.046853 1.179807
v -0.297437 -0.025879 1.185619
v -0.257500 0.024860 1.159252
v 0.417167 0.006092 1.055572
v -0.309338 -0.127448 1.185313
v -0.303638 -0.160587 1.164255
v 0.942648 -0.003652 -1.328307
v -0.693536 0.080050 -1.026342
v -0.374836 -0.036446 1.170687
v -0.352755 -0.019041 1.152823
v -0.354916 -0.133120 1.137455
v -0.266573 0.040993 1.123408
v -0.632660 0.041067 -1.008711
v 0.999133 -0.016877 -1.302976
v -0.311335 -0.176984 1.132975
v -0.749062 -0.036340 -1.014755
v 1.337840 0.034466 0.869828
v -0.673058 -0.177045 -0.997634
v -0.708713 0.064734 -0.924741
v 0.983637 0.024979 -1.286253
v 0.953406 0.021035 -1.313560
v 0.950324 0.041554 -1.282077
v -0.759189 0.061592 -0.912925
v -0.722989 -0.018958 -1.001067
v 1.338494 -0.008441 0.901456
v 1.318086 0.041787 0.857143
v 1.316835 -0.175277 0.865716
v 1.336577 -0.131953 0.900854
v 1.368626 -0.006758 0.849775
v 1.369833 -0.118516 0.852190
v 1.351249 -0.158608 0.852380
v 0.083151 -0.003245 -1.179656
v -0.870750 1.588649 -0.988852
v -0.855750 1.597277 -1.019134
v -0.752919 1.595564 -1.037588
v -0.725428 0.067909 -1.019074
v -0.854774 -0.011071 -1.020140
v -0.844341 -0.036610 -0.995591
v -0.736541 0.048757 -1.031636
v -0.755560 -0.010859 -1.037582
v -0.719929 -0.135015 -0.994281
v -0.730412 -0.006500 -1.026327
v -0.685062 -0.013647 -1.049648
v -0.655796 0.061548 -1.041394
v -0.643096 0.019082 -1.044161
v -0.688156 -0.123480 -1.049205
v -0.681368 -0.161643 -1.029035
v -0.192038 0.015799 -1.121931
vt 0.031991 0.029169
vt 0.030753 0.028241
vt 0.030571 0.026738
vt 0.523549 0.060597
vt 0.518682 0.057487
vt 0.522370 0.040238
vt 0.065926 0.438135
vt 0.063994 0.434838
vt 0.045888 0.437875
vt 0.495344 0.335143
vt 0.498923 0.334005
vt 0.495795 0.331792
vt 0.036342 0.018047
vt 0.080115 0.334884
vt 0.040474 0.726295
vt 0.044055 0.729942
vt 0.496394 0.613754
vt 0.390666 0.026926
vt 0.031626 0.031971
vt 0.953793 0.042006
vt 0.939933 0.680716
vt 0.935135 0.683133
vt 0.937621 0.679000
vt 0.062707 0.730451
vt 0.067042 0.728701
vt 0.008189 0.058574
vt 0.031882 0.326274
vt 0.000605 0.034891
vt 0.935379 0.959545
vt 0.916545 0.695384
vt 0.916440 0.958025
vt 0.885134 0.715000
vt 0.601143 0.705193
vt 0.884435 0.706540
vt 0.505520 0.682415
vt 0.934320 0.680236
vt 0.002234 0.552070
vt 0.011339 0.186418
vt 0.002141 0.186294
vt 0.524012 0.695503
vt 0.079874 0.331752
vt 0.087715 0.665252
vt 0.040129 0.729322
vt 0.040623 0.730845
vt 0.602450 0.713721
vt 0.939601 0.961471
vt 0.639760 0.085254
vt 0.637964 0.082769
vt 0.637105 0.085667
vt 0.068362 0.721813
vt 0.067310 0.718427
vt 0.960048 0.680295
vt 0.956485 0.689541
vt 0.967203 0.690294
vt 0.954493 0.684084
vt 0.060093 0.733281
vt 0.965575 0.694030
vt 0.918463 0.116875
vt 0.919135 0.120502
vt 0.917157 0.120788
vt 0.970009 0.684417
vt 0.962371 0.674996
vt 0.967091 0.551943
vt 0.949505 0.186534
vt 0.956212 0.163947
vt 0.955785 0.186499
vt 0.955900 0.601336
vt 0.957425 0.598452
vt 0.937319 0.601164
vt 0.933756 0.602313
vt 0.931498 0.602720
vt 0.930438 0.599451
vt 0.913824 0.119698
vt 0.950926 0.163408
vt 0.887306 0.267226
vt 0.898188 0.374800
vt 0.506172 0.350699
vt 0.901866 0.290986
vt 0.930437 0.596423
vt 0.510887 0.192859
vt 0.516918 0.197317
vt 0.513317 0.188253
vt 0.509924 0.382342
vt 0.890167 0.382310
vt 0.887789 0.402062
vt 0.670374 0.377288
vt 0.896918 0.380067
vt 0.921490 0.285355
vt 0.935217 0.599580
vt 0.972992 0.689437
vt 0.991796 0.685080
vt 0.537362 0.306061
vt 0.539113 0.323065
vt 0.539207 0.305938
vt 0.913710 0.100112
vt 0.872813 0.096102
vt 0.910637 0.096222
vt 0.938494 0.214723
vt 0.945596 0.216322
vt 0.941059 0.238282
vt 0.544598 0.950297
vt 0.543114 0.708067
vt 0.539907 0.708297
vt 0.963149 0.382387
vt 0.448366 0.325125
vt 0.449947 0.327597
vt 0.444266 0.323377
vt 0.447043 0.032351
vt 0.523287 0.312423
vt 0.484641 0.294148
vt 0.867662 0.262430
vt 0.870680 0.269358
vt 0.522165 0.341401
vt 0.148012 0.990977
vt 0.153225 0.994521
vt 0.147443 0.995973
vt 0.520485 0.334246
vt 0.154666 0.989891
vt 0.153685 0.998017
vt 0.495748 0.617554
vt 0.509634 0.645716
vt 0.893708 0.649300
vt 0.510398 0.650914
vt 0.656618 0.121355
vt 0.907846 0.118995
vt 0.997626 0.683630
vt 0.993075 0.382380
vt 0.969101 0.382119
vt 0.999375 0.383260
vt 0.837670 0.638826
vt 0.895490 0.388025
vt 0.857518 0.562523
vt 0.627714 0.164261
vt 0.511920 0.239597
vt 0.517747 0.240004
vt 0.514773 0.244866
vt 0.891239 0.645545
vt 0.939341 0.244229
vt 0.517602 0.218886
vt 0.988948 0.376641
vt 0.518794 0.212763
vt 0.512690 0.215262
vt 0.450902 0.026171
vt 0.467828 0.994780
vt 0.492613 0.719884
vt 0.492550 0.982720
vt 0.100636 0.982728
vt 0.010874 0.551452
vt 0.952821 0.060504
vt 0.886960 0.812698
vt 0.887529 0.815055
vt 0.889448 0.812077
vt 0.967317 0.051362
vt 0.986878 0.051484
vt 0.969523 0.048673
vt 0.984654 0.329971
vt 0.952954 0.038386
vt 0.956505 0.057452
vt 0.966503 0.048509
vt 0.522505 0.959040
vt 0.504752 0.959673
vt 0.962539 0.054944
vt 0.961148 0.318482
vt 0.785484 0.132872
vt 0.503368 0.124707
vt 0.786468 0.125029
vt 0.965999 0.329047
vt 0.100877 0.718084
vt 0.905525 0.285771
vt 0.602696 0.109186
vt 0.075704 0.335282
vt 0.075656 0.613702
vt 0.959871 0.284788
vt 0.079643 0.613829
vt 0.921127 0.282471
vt 0.923950 0.284680
vt 0.502521 0.133004
vt 0.505108 0.345297
vt 0.501773 0.961646
vt 0.503378 0.346655
vt 0.968233 0.332638
vt 0.901055 0.286368
vt 0.901120 0.283413
vt 0.963422 0.331023
vt 0.962382 0.327391
vt 0.615014 0.169225
vt 0.611659 0.165680
vt 0.565351 0.662984
vt 0.559502 0.661748
vt 0.811048 0.658889
vt 0.816447 0.662376
vt 0.505426 0.359644
vt 0.505388 0.379607
vt 0.504746 0.382922
vt 0.628514 0.184208
vt 0.529958 0.102809
vt 0.535581 0.100973
vt 0.534188 0.119645
vt 0.623285 0.188010
vt 0.629506 0.189896
vt 0.619792 0.154041
vt 0.634214 0.151468
vt 0.632123 0.159918
vt 0.036940 0.323085
vt 0.934963 0.083907
vt 0.932196 0.084541
vt 0.933864 0.086764
vt 0.626703 0.147986
vt 0.906105 0.073661
vt 0.904366 0.075922
vt 0.536120 0.094561
vt 0.898595 0.428141
vt 0.897140 0.426561
vt 0.899849 0.426922
vt 0.378471 0.993716
vt 0.464770 0.999570
vt 0.780045 0.152354
vt 0.081125 0.874345
vt 0.084389 0.942771
vt 0.081809 0.795761
vt 0.324046 0.989514
vt 0.703838 0.584198
vt 0.513100 0.610858
vt 0.513059 0.531762
vn 0.3285 -0.7012 -0.6328
vn 0.1059 0.7433 0.6605
vn 0.1232 0.7152 0.6880
vn -0.7155 0.3663 0.5949
vn 0.4842 -0.7081 -0.5139
vn -0.8788 0.4525 0.1514
vn -0.5580 -0.0013 0.8298
vn -0.6858 0.0019 0.7278
vn 0.5791 -0.8088 -0.1021
vn 0.0006 1.0000 0.0009
vn 0.7599 0.4729 0.4460
vn 0.4929 -0.0008 0.8701
vn -0.1040 -0.7709 -0.6285
vn 0.9860 -0.0003 -0.1668
vn 0.9888 0.0010 -0.1494
vn -0.1112 -0.0001 -0.9938
vn 0.8120 0.5672 -0.1374
vn 0.0680 -0.9976 -0.0121
vn 0.9855 0.0038 -0.1696
vn 0.9855 0.0143 -0.1693
vn -0.8636 0.4818 0.1483
vn -0.9856 -0.0001 0.1692
vn -0.6089 -0.3852 0.6934
vn -0.1110 -0.0001 -0.9938
vn 0.8318 0.0028 0.5551
vn 0.8370 0.0029 0.5472
vn -0.0786 0.8841 0.4606
vn -0.7398 0.1965 0.6435
vn 0.1943 0.0534 0.9795
vn 0.2401 0.3438 0.9078
vn 0.1672 0.0001 0.9859
vn 0.1711 -0.0001 0.9853
vn 0.1026 -0.7469 0.6570
vn -0.3127 0.0324 0.9493
vn -0.2614 -0.8035 0.5349
vn 0.2618 -0.0372 0.9644
vn 0.7506 -0.2798 0.5986
vn 0.1515 0.3593 0.9208
vn 0.3313 0.0451 -0.9425
vn 0.1079 -0.7394 0.6646
vn 0.6740 -0.5880 0.4472
vn 0.7390 -0.5717 0.3564
vn -0.3030 -0.8961 0.3243
vn 0.4097 0.0026 -0.9122
vn -0.0844 0.9963 0.0179
vn 0.5663 -0.8184 -0.0974
vn 0.9177 0.3935 -0.0552
vn -0.0005 1.0000 0.0001
vn 0.7599 0.6370 -0.1292
vn -0.0283 -0.9996 0.0062
vn -0.5040 0.0565 0.8619
vn -0.7171 -0.0797 0.6924
vn -0.5429 -0.5995 0.5881
vn 0.8149 -0.0812 -0.5738
vn 0.0660 0.9160 0.3956
vn 0.1352 0.6282 0.7662
vn -0.8174 -0.4025 0.4121
vn 0.0746 -0.8907 0.4485
vn -0.0655 0.9978 0.0105
vn 0.5538 0.4776 -0.6821
vn -0.0599 0.9982 0.0097
vn 0.4483 0.3063 -0.8398
vn 0.3382 0.8032 -0.4904
vn -0.8666 -0.4757 0.1507
vn 0.4366 0.8965 -0.0757
vn -0.9855 -0.0042 0.1694
vn 0.1448 -0.5128 0.8462
vn 0.1640 0.2330 0.9585
vn 0.1304 -0.6597 0.7401
vn 0.1713 -0.0230 0.9849
vn 0.1703 -0.0074 0.9854
vn 0.0011 -1.0000 0.0002
vn 0.1424 0.5887 0.7957
vn 0.0698 0.9072 0.4149
vn -0.1687 -0.0026 -0.9857
vn 0.7993 0.3644 0.4779
vn 0.3838 0.9211 -0.0661
vn 0.7637 0.6327 -0.1282
vn 0.8634 0.0202 0.5041
vn 0.8275 -0.0156 0.5612
vn 0.8107 -0.3736 0.4508
vn 0.8966 -0.4163 -0.1509
vn 0.5271 -0.6671 0.5264
vn 0.4127 -0.9082 -0.0701
vn 0.9856 0.0070 -0.1692
vn -0.9856 -0.0002 0.1693
vn -0.0938 0.8299 -0.5500
vn 0.9856 -0.0001 -0.1692
vn 0.0459 -0.9989 -0.0077
vn -0.0280 0.9996 0.0046
vn -0.8665 0.3832 -0.3200
vn -0.1321 0.5966 -0.7916
vn -0.1766 0.0005 -0.9843
vn 0.5257 0.8456 -0.0928
vn -0.1691 0.7296 -0.6627
vn 0.3738 0.6293 -0.6814
vn 0.9837 0.0010 -0.1798
vn 0.9847 0.0013 -0.1744
vn 0.6125 0.0034 -0.7905
vn 0.2057 -0.0000 0.9786
vn -0.1731 0.0003 -0.9849
vn 0.9856 0.0000 -0.1693
vn 0.0027 -1.0000 -0.0005
vn -0.9855 -0.0161 0.1688
vn -0.8275 -0.5431 0.1425
vn -0.8961 -0.0003 -0.4439
vn -0.6803 -0.7239 0.1147
vn -0.8944 -0.0002 -0.4473
vn -0.7007 -0.6221 -0.3494
vn 0.2279 0.0008 0.9737
vn -0.4302 0.8999 0.0714
vn -0.3361 0.9374 0.0911
vn 0.7478 0.0015 -0.6639
vn -0.3958 0.6531 -0.6456
vn -0.1359 -0.7149 -0.6859
vn -0.1256 -0.6795 -0.7228
vn 0.6470 -0.5911 -0.4817
vn 0.4195 -0.5440 -0.7267
vn -0.3160 -0.8844 -0.3434
vn 0.5517 0.8287 -0.0947
vn 0.7525 0.6460 -0.1279
vn 0.4151 0.9068 -0.0739
vn 0.8575 0.2844 -0.4288
vn 0.5879 -0.8026 -0.1007
vn -0.7891 0.0198 -0.6139
vn -0.8596 -0.0524 -0.5083
vn -0.7504 -0.4082 -0.5198
vn 0.2998 -0.0005 -0.9540
vn -0.1438 0.1631 -0.9761
vn 0.0645 0.0841 -0.9944
vn 0.0006 -1.0000 -0.0001
vn 0.4141 -0.0414 -0.9093
vn -0.4699 -0.1359 -0.8722
vn -0.1709 0.3881 -0.9056
vn -0.6981 -0.7059 0.1202
vn -0.6590 -0.7438 0.1119
vn -0.6638 -0.7258 -0.1804
vn -0.0734 -0.9029 -0.4235
vn 0.9041 0.3975 -0.1570
vn 0.9852 -0.0177 -0.1703
vn -0.1535 0.3919 -0.9071
vn -0.1400 0.5520 -0.8220
vn -0.0877 0.8579 -0.5062
vn -0.1185 0.6874 -0.7165
vn -0.1604 0.3598 -0.9191
vn -0.1648 0.2528 -0.9534
vn -0.1556 0.4053 -0.9008
vn -0.1685 0.0008 -0.9857
vn -0.1514 -0.4828 -0.8625
vn -0.0003 1.0000 -0.0001
usemtl 282297_23_05_24_17_32_28_1
s off
f 5/1/1 2/2/1 4/3/1
f 3/4/2 1/5/2 12/6/2
f 6/7/3 12/8/3 1/9/3
f 7/10/4 1/11/4 3/12/4
f 8/13/5 5/1/5 4/3/5
f 3/12/6 62/14/6 7/10/6
f 25/15/7 11/16/7 1/9/7
f 25/17/8 1/11/8 7/10/8
f 60/18/9 5/19/9 8/13/9
f 12/6/10 10/20/10 3/4/10
f 6/21/11 13/22/11 12/23/11
f 15/24/12 16/25/12 6/7/12
f 5/26/13 76/27/13 2/28/13
f 13/22/14 27/29/14 17/30/14
f 27/29/15 20/31/15 17/30/15
f 17/32/16 19/33/16 18/34/16
f 14/35/17 12/36/17 13/22/17
f 21/37/18 17/38/18 18/39/18
f 13/22/19 17/30/19 14/35/19
f 22/40/20 14/35/20 17/30/20
f 62/14/21 3/12/21 9/41/21
f 23/42/22 25/17/22 7/10/22
f 25/43/23 24/44/23 11/16/23
f 19/33/24 17/32/24 20/45/24
f 13/22/25 6/21/25 27/29/25
f 27/29/26 6/21/26 16/46/26
f 28/47/27 27/48/27 26/49/27
f 16/25/28 26/50/28 27/51/28
f 30/52/29 26/53/29 29/54/29
f 30/52/30 28/55/30 26/53/30
f 1/9/31 11/16/31 6/7/31
f 6/7/32 11/16/32 15/24/32
f 15/24/33 11/16/33 38/56/33
f 26/53/34 16/57/34 29/54/34
f 31/58/35 29/59/35 16/60/35
f 30/52/36 29/54/36 31/61/36
f 30/52/37 31/61/37 32/62/37
f 33/63/38 32/62/38 31/61/38
f 2/64/39 43/65/39 4/66/39
f 11/67/40 24/68/40 38/69/40
f 15/70/41 38/69/41 16/71/41
f 38/69/42 39/72/42 16/71/42
f 31/58/43 16/60/43 39/73/43
f 36/74/44 43/65/44 2/64/44
f 27/75/45 28/76/45 37/77/45
f 53/78/46 39/79/46 38/69/46
f 32/80/47 41/81/47 30/82/47
f 42/83/48 41/84/48 55/85/48
f 73/86/49 28/76/49 30/87/49
f 24/68/50 67/88/50 38/89/50
f 31/61/51 39/90/51 34/91/51
f 34/92/52 39/93/52 40/94/52
f 34/95/53 40/96/53 44/97/53
f 8/98/54 4/99/54 43/100/54
f 55/101/55 41/102/55 32/103/55
f 33/63/56 46/104/56 32/62/56
f 35/105/57 34/106/57 44/107/57
f 56/108/58 35/109/58 44/110/58
f 19/111/59 20/112/59 48/113/59
f 43/114/60 50/115/60 49/116/60
f 48/113/61 52/117/61 19/111/61
f 36/118/62 50/115/62 43/114/62
f 49/116/63 50/115/63 51/119/63
f 24/120/64 25/17/64 23/42/64
f 51/121/65 46/122/65 49/123/65
f 53/124/66 40/96/66 39/125/66
f 34/91/67 35/126/67 57/127/67
f 33/63/68 31/61/68 54/128/68
f 56/129/69 57/127/69 35/126/69
f 54/128/70 31/61/70 34/91/70
f 54/128/71 34/91/71 57/127/71
f 44/110/72 5/19/72 56/108/72
f 33/63/73 54/128/73 46/104/73
f 55/130/74 32/131/74 46/132/74
f 2/64/75 72/133/75 36/74/75
f 54/134/76 58/135/76 46/136/76
f 46/122/77 51/121/77 55/137/77
f 49/138/78 46/136/78 58/135/78
f 58/135/79 54/134/79 59/139/79
f 57/127/80 59/140/80 54/128/80
f 60/141/81 59/139/81 57/142/81
f 8/98/82 59/139/82 60/141/82
f 57/143/83 56/108/83 60/18/83
f 60/18/84 56/108/84 5/19/84
f 58/135/85 59/139/85 43/100/85
f 62/14/86 23/42/86 7/10/86
f 74/144/87 51/119/87 50/115/87
f 52/145/88 21/146/88 18/147/88
f 22/148/89 17/38/89 21/37/89
f 3/4/90 10/20/90 9/149/90
f 9/150/91 63/151/91 62/152/91
f 64/153/92 63/154/92 10/155/92
f 64/153/93 66/156/93 63/154/93
f 14/157/94 10/20/94 12/6/94
f 63/158/95 9/149/95 10/20/95
f 14/159/96 64/153/96 10/155/96
f 22/40/97 48/160/97 14/35/97
f 48/160/98 65/161/98 14/35/98
f 14/162/99 68/163/99 64/153/99
f 21/164/100 48/165/100 22/166/100
f 66/156/101 64/153/101 69/167/101
f 18/147/102 19/168/102 52/145/102
f 38/89/103 67/88/103 45/169/103
f 40/96/104 53/124/104 70/170/104
f 27/75/105 48/113/105 20/112/105
f 62/14/106 63/171/106 66/172/106
f 24/68/107 23/173/107 67/88/107
f 62/14/108 66/172/108 23/174/108
f 66/175/109 67/88/109 23/176/109
f 52/177/110 48/165/110 21/164/110
f 48/113/111 27/75/111 37/77/111
f 48/113/112 37/77/112 65/178/112
f 65/161/113 68/179/113 14/35/113
f 37/77/114 68/180/114 65/178/114
f 67/88/115 66/175/115 45/169/115
f 69/167/116 45/181/116 66/156/116
f 53/182/117 45/169/117 71/183/117
f 45/184/118 69/167/118 71/185/118
f 72/133/119 53/186/119 71/187/119
f 30/188/120 41/189/120 42/190/120
f 42/190/121 73/191/121 30/188/121
f 37/77/122 28/76/122 73/192/122
f 73/193/123 42/83/123 74/194/123
f 38/69/124 45/169/124 53/78/124
f 75/195/125 53/186/125 72/133/125
f 75/196/126 70/197/126 53/198/126
f 70/199/127 75/195/127 76/200/127
f 64/153/128 68/163/128 69/167/128
f 68/201/129 73/202/129 72/133/129
f 73/202/130 74/203/130 72/133/130
f 44/110/131 47/204/131 5/19/131
f 71/185/132 69/167/132 68/163/132
f 72/205/133 71/206/133 68/207/133
f 68/201/134 37/208/134 73/202/134
f 44/209/135 40/210/135 70/197/135
f 70/197/136 47/211/136 44/209/136
f 76/212/137 47/213/137 70/214/137
f 76/27/138 5/26/138 47/204/138
f 49/138/139 58/135/139 43/100/139
f 43/100/140 59/139/140 8/98/140
f 74/144/141 50/115/141 77/215/141
f 50/115/142 36/118/142 77/215/142
f 74/144/143 42/216/143 51/119/143
f 36/118/144 74/144/144 77/215/144
f 72/133/145 74/203/145 61/217/145
f 61/218/146 36/219/146 72/220/146
f 61/221/147 74/144/147 36/118/147
f 72/133/148 2/64/148 75/195/148
f 76/200/149 75/195/149 2/64/149
f 55/222/150 51/223/150 42/224/150
