# Blender 3.5.1
# www.blender.org
mtllib button.mtl
o Cube
v -0.387167 0.028958 0.387167
v -0.387167 0.001129 0.387167
v -0.387167 0.028958 -0.387167
v -0.387167 0.001129 -0.387167
v 0.387167 0.028958 0.387167
v 0.387167 0.001129 0.387167
v 0.387167 0.028958 -0.387167
v 0.387167 0.001129 -0.387167
vn -1.0000 -0.0000 -0.0000
vn -0.0000 -0.0000 -1.0000
vn 1.0000 -0.0000 -0.0000
vn -0.0000 -0.0000 1.0000
vn -0.0000 1.0000 -0.0000
vn -0.0000 -1.0000 -0.0000
vt 0.375000 0.000000
vt 0.375000 1.000000
vt 0.125000 0.750000
vt 0.625000 0.000000
vt 0.625000 1.000000
vt 0.875000 0.750000
vt 0.375000 0.250000
vt 0.125000 0.500000
vt 0.625000 0.250000
vt 0.875000 0.500000
vt 0.375000 0.750000
vt 0.625000 0.750000
vt 0.375000 0.500000
vt 0.625000 0.500000
s 0
f 1/1/1 3/7/1 4/9/1 2/4/1
f 3/7/2 7/13/2 8/14/2 4/9/2
f 7/13/3 5/11/3 6/12/3 8/14/3
f 5/11/4 1/2/4 2/5/4 6/12/4
f 3/8/5 1/3/5 5/11/5 7/13/5
f 8/14/6 6/12/6 2/6/6 4/10/6
o Cube.002
v -0.602976 0.028958 0.602976
v -0.602976 0.001129 0.602976
v -0.602976 0.028958 -0.602976
v -0.602976 0.001129 -0.602976
v 0.602976 0.028958 0.602976
v 0.602976 0.001129 0.602976
v 0.602976 0.028958 -0.602976
v 0.602976 0.001129 -0.602976
v 0.479480 0.028958 0.479480
v -0.479480 0.028958 -0.479480
v 0.479480 0.028958 -0.479480
v -0.479480 0.028958 0.479480
v -0.479480 0.001129 0.479480
v 0.479480 0.001129 -0.479480
v -0.479480 0.001129 -0.479480
v 0.479480 0.001129 0.479480
vn -1.0000 -0.0000 -0.0000
vn -0.0000 -0.0000 -1.0000
vn 1.0000 -0.0000 -0.0000
vn -0.0000 -0.0000 1.0000
vn -0.0000 1.0000 -0.0000
vn -0.0000 -1.0000 -0.0000
vt 0.375000 0.000000
vt 0.375000 1.000000
vt 0.125000 0.750000
vt 0.625000 0.000000
vt 0.625000 1.000000
vt 0.875000 0.750000
vt 0.375000 0.250000
vt 0.125000 0.500000
vt 0.625000 0.250000
vt 0.875000 0.500000
vt 0.375000 0.750000
vt 0.625000 0.750000
vt 0.375000 0.500000
vt 0.625000 0.500000
vt 0.349399 0.724399
vt 0.556257 0.750000
vt 0.150601 0.525601
vt 0.556257 0.250000
vt 0.349399 0.525601
vt 0.556257 0.500000
vt 0.150601 0.724399
vt 0.556257 0.000000
vt 0.556257 1.000000
vt 0.849399 0.724399
vt 0.598996 0.000000
vt 0.598996 1.000000
vt 0.650602 0.525601
vt 0.598996 0.500000
vt 0.849399 0.525601
vt 0.598996 0.250000
vt 0.650602 0.724399
vt 0.598996 0.750000
s 0
f 9/15/7 11/21/7 12/23/7 10/18/7
f 11/21/8 15/27/8 16/28/8 12/23/8
f 15/27/9 13/25/9 14/26/9 16/28/9
f 13/25/10 9/16/10 10/19/10 14/26/10
f 20/35/11 18/31/11 19/33/11 17/29/11 13/25/11 15/27/11 11/22/11 9/17/11
f 13/25/11 17/29/11 20/35/11 9/17/11
f 12/24/12 23/43/12 21/38/12 24/45/12 14/26/12 10/20/12
f 14/26/12 24/45/12 22/41/12 23/43/12 12/24/12 16/28/12
f 21/39/9 23/44/9 18/32/9 20/36/9
f 23/44/10 22/42/10 19/34/10 18/32/10
f 19/34/7 22/42/7 24/46/7 17/30/7
f 17/30/8 24/46/8 21/40/8 20/37/8
