# Blender 3.5.1
# www.blender.org
mtllib metallregal.mtl
o Cube.008
v 1.300000 -0.027182 5.200000
v -2.000000 4.800001 5.499999
v -2.000000 4.800001 5.500000
v -2.000000 1.800000 5.499998
v 1.300000 -0.027182 4.800000
v -2.000000 5.200000 5.500000
v 1.700000 -0.027182 5.200000
v -2.000000 5.200000 5.499999
v -2.000000 4.800000 -5.500000
v -2.000000 5.199999 -5.500000
v 1.700000 -0.027182 4.800000
v 1.300000 -0.027180 -4.799999
v 2.000000 4.800001 5.500000
v -2.000000 4.800000 -5.500000
v 2.000000 5.200000 5.500000
v -1.700000 -0.027182 5.199999
v 2.000000 4.800000 -5.500000
v -2.000000 5.199999 -5.500000
v 2.000000 5.199999 -5.500000
v 1.300000 -0.027180 -5.199999
v -2.000000 7.800001 5.499998
v 2.000000 4.800001 5.499999
v 2.000000 5.200000 5.499999
v -1.700000 -0.027182 4.799998
v 2.000000 4.800000 -5.500000
v 1.700000 -0.027180 -4.799999
v 2.000000 5.199999 -5.500000
v -2.000000 8.200000 5.499998
v -1.700000 -0.027182 -4.799998
v -2.000000 2.200001 5.499998
v 1.700000 -0.027180 -5.199999
v -1.300000 -0.027182 5.199999
v -2.000000 7.800000 -5.499999
v -2.000000 8.200000 -5.499999
v -1.300000 -0.027182 4.799998
v 2.000000 7.800001 5.499998
v -2.000000 1.800000 -5.499998
v 2.000000 8.200000 5.499998
v -1.700000 -0.027182 -5.199998
v -2.000000 2.200000 -5.499998
v 2.000000 7.800000 -5.499999
v 2.000000 8.200000 -5.499999
v -1.300000 -0.027182 -4.799998
v 2.000000 1.800000 5.499998
v 2.000000 2.200001 5.499998
v 2.000000 1.800000 -5.499998
v -1.300000 -0.027182 -5.199998
v 2.000000 2.200000 -5.499998
v -1.700000 1.800000 -5.199998
v -1.700000 1.800000 -4.799998
v -1.300000 1.800000 -4.799998
v -1.300000 1.800000 -5.199998
v -1.700000 2.200000 -4.799998
v -1.700000 2.200000 -5.199998
v -1.300000 2.200000 -5.199998
v -1.300000 2.200000 -4.799998
v -1.700000 7.800000 -4.799998
v -1.700000 7.800000 -5.199998
v -1.300000 7.800000 -5.199998
v -1.300000 7.800000 -4.799998
v -1.700000 1.800000 4.799998
v -1.700000 1.800000 5.199999
v -1.300000 1.800000 5.199999
v -1.300000 1.800000 4.799998
v -1.700000 2.200001 5.199999
v -1.700000 2.200001 4.799998
v -1.300000 2.200001 4.799998
v -1.300000 2.200001 5.199999
v -1.700000 7.800001 5.199998
v -1.700000 7.800001 4.799997
v -1.300000 7.800001 4.799997
v -1.300000 7.800001 5.199998
v 1.300000 1.800000 -5.199999
v 1.300000 1.800000 -4.799999
v 1.700000 1.800000 -4.799999
v 1.700000 1.800000 -5.199999
v 1.300000 2.200000 -4.799999
v 1.300000 2.200000 -5.199999
v 1.700000 2.200000 -5.199999
v 1.700000 2.200000 -4.799999
v 1.300000 7.800000 -4.800000
v 1.300000 7.800000 -5.199999
v 1.700000 7.800000 -4.800000
v 1.700000 7.800000 -5.199999
v -1.700000 4.800000 -4.799998
v -1.700000 5.199999 -4.799998
v -1.700000 4.800000 -5.199998
v -1.700000 5.199999 -5.199998
v -1.300000 4.800000 -5.199998
v -1.300000 5.199999 -5.199998
v -1.300000 4.800000 -5.014285
v -1.300000 4.800000 -4.799998
v -1.300000 5.199999 -4.799998
v -1.700000 4.800001 5.199998
v -1.700000 5.200000 5.199998
v -1.700000 4.800001 4.799997
v -1.700000 5.200000 4.799997
v -1.300000 4.800001 4.799997
v -1.300000 5.200000 4.799997
v -1.300000 4.800001 5.199998
v -1.300000 5.200000 5.199998
v 1.300000 4.800000 -5.014286
v 1.300000 4.800000 -4.800000
v 1.300000 5.199999 -4.800000
v 1.300000 4.800000 -5.199999
v 1.300000 5.199999 -5.199999
v 1.700000 4.800000 -5.199999
v 1.700000 5.199999 -5.199999
v 1.700000 4.800000 -4.800000
v 1.700000 5.199999 -4.800000
v 2.000000 5.199999 -5.500000
v 2.000000 4.800001 5.499999
v -2.000000 5.200000 5.499999
v -1.700000 5.200000 4.674999
v -1.999999 5.200000 5.499997
v 1.703371 5.199999 -4.684269
v 1.370143 5.199999 -3.767894
v -1.345794 5.200000 3.700933
v 2.000000 5.199999 -5.500000
v -1.694118 4.800000 -4.658823
v -2.000000 4.800000 -5.500000
v -1.300000 4.800000 -3.575000
v 0.000000 4.800000 -0.000000
v -1.703371 4.800000 -4.684269
v -1.999999 4.800000 -5.499998
v 1.300000 1.800000 5.200000
v 1.300000 1.800000 4.800000
v 1.700000 1.800000 4.800000
v 1.700000 1.800000 5.200000
v 1.300000 2.200001 5.200000
v 1.300000 2.200001 4.800000
v 1.700000 2.200001 4.800000
v 1.700000 2.200001 5.200000
v 1.300000 7.800001 5.199999
v 1.300000 7.800001 4.800000
v 1.700000 7.800001 4.800000
v 1.700000 7.800001 5.199999
v 1.300000 4.800001 5.199999
v 1.300000 4.800001 4.800000
v 1.700000 4.800001 5.199999
v 1.700000 4.800001 4.800000
v 1.300000 5.200000 5.199999
v 1.300000 5.200000 4.800000
v 1.700000 5.200000 5.199999
v 1.700000 5.200000 4.800000
vn -1.0000 -0.0000 -0.0000
vn -0.0000 -0.0000 -1.0000
vn 1.0000 -0.0000 -0.0000
vn -0.0000 -0.0000 1.0000
vn -0.0000 -1.0000 -0.0000
vn -0.0000 1.0000 -0.0000
vn -0.0000 1.0000 -0.0001
vt 0.375000 0.000000
vt 0.375000 1.000000
vt 0.125000 0.750000
vt 0.375000 0.000000
vt 0.125000 0.750000
vt 0.375000 0.000000
vt 0.375000 1.000000
vt 0.125000 0.750000
vt 0.375000 0.000000
vt 0.375000 1.000000
vt 0.125000 0.750000
vt 0.375000 0.250000
vt 0.125000 0.500000
vt 0.625000 0.000000
vt 0.625000 1.000000
vt 0.875000 0.750000
vt 0.375000 0.750000
vt 0.625000 0.000000
vt 0.875000 0.750000
vt 0.375000 0.250000
vt 0.125000 0.500000
vt 0.625000 0.250000
vt 0.875000 0.500000
vt 0.375000 0.500000
vt 0.375000 0.000000
vt 0.375000 1.000000
vt 0.125000 0.750000
vt 0.375000 0.750000
vt 0.375000 0.250000
vt 0.125000 0.500000
vt 0.625000 0.750000
vt 0.375000 0.000000
vt 0.375000 1.000000
vt 0.125000 0.750000
vt 0.375000 0.500000
vt 0.625000 0.250000
vt 0.875000 0.500000
vt 0.625000 0.500000
vt 0.375000 0.250000
vt 0.125000 0.500000
vt 0.375000 0.000000
vt 0.375000 1.000000
vt 0.125000 0.750000
vt 0.375000 0.750000
vt 0.625000 0.750000
vt 0.375000 0.250000
vt 0.125000 0.500000
vt 0.375000 0.500000
vt 0.375000 0.750000
vt 0.625000 0.500000
vt 0.625000 0.000000
vt 0.625000 1.000000
vt 0.875000 0.750000
vt 0.375000 0.000000
vt 0.375000 1.000000
vt 0.125000 0.750000
vt 0.625000 0.000000
vt 0.625000 1.000000
vt 0.875000 0.750000
vt 0.375000 0.500000
vt 0.375000 0.750000
vt 0.375000 0.250000
vt 0.125000 0.500000
vt 0.625000 0.250000
vt 0.875000 0.500000
vt 0.375000 0.500000
vt 0.375000 0.750000
vt 0.375000 0.250000
vt 0.125000 0.500000
vt 0.625000 0.750000
vt 0.375000 0.250000
vt 0.125000 0.500000
vt 0.625000 0.250000
vt 0.875000 0.500000
vt 0.375000 0.500000
vt 0.625000 0.500000
vt 0.375000 0.750000
vt 0.375000 0.750000
vt 0.625000 0.750000
vt 0.375000 0.500000
vt 0.375000 0.500000
vt 0.625000 0.500000
vt 0.143750 0.506818
vt 0.432099 0.250000
vt 0.143750 0.515909
vt 0.432099 0.000000
vt 0.432099 1.000000
vt 0.168750 0.515909
vt 0.432099 0.750000
vt 0.168750 0.506818
vt 0.432099 0.500000
vt 0.856250 0.515909
vt 0.444599 0.000000
vt 0.444599 1.000000
vt 0.856250 0.506818
vt 0.444599 0.250000
vt 0.831250 0.506818
vt 0.444599 0.500000
vt 0.831250 0.515909
vt 0.444599 0.750000
vt 0.619599 0.000000
vt 0.619599 1.000000
vt 0.143750 0.515909
vt 0.619599 0.250000
vt 0.143750 0.506818
vt 0.619599 0.500000
vt 0.168750 0.506818
vt 0.619599 0.750000
vt 0.168750 0.515909
vt 0.143750 0.734091
vt 0.432099 0.250000
vt 0.143750 0.743182
vt 0.432099 0.000000
vt 0.432099 1.000000
vt 0.168750 0.743182
vt 0.432099 0.750000
vt 0.168750 0.734091
vt 0.432099 0.500000
vt 0.856250 0.743182
vt 0.444599 0.000000
vt 0.444599 1.000000
vt 0.856250 0.734091
vt 0.444599 0.250000
vt 0.831250 0.734091
vt 0.444599 0.500000
vt 0.831250 0.743182
vt 0.444599 0.750000
vt 0.143750 0.743182
vt 0.619599 0.000000
vt 0.619599 1.000000
vt 0.143750 0.734091
vt 0.619599 0.250000
vt 0.168750 0.734091
vt 0.619599 0.500000
vt 0.168750 0.743182
vt 0.619599 0.750000
vt 0.331250 0.506818
vt 0.432099 0.250000
vt 0.331250 0.515909
vt 0.432099 0.000000
vt 0.432099 1.000000
vt 0.356250 0.515909
vt 0.432099 0.750000
vt 0.356250 0.506818
vt 0.432099 0.500000
vt 0.668750 0.515909
vt 0.444599 0.000000
vt 0.444599 1.000000
vt 0.668750 0.506818
vt 0.444599 0.250000
vt 0.643750 0.506818
vt 0.444599 0.500000
vt 0.643750 0.515909
vt 0.444599 0.750000
vt 0.331250 0.515909
vt 0.619599 0.000000
vt 0.619599 1.000000
vt 0.331250 0.506818
vt 0.619599 0.250000
vt 0.356250 0.515909
vt 0.619599 0.750000
vt 0.356250 0.506818
vt 0.619599 0.500000
vt 0.525849 0.000000
vt 0.525849 1.000000
vt 0.143750 0.515909
vt 0.538349 0.000000
vt 0.538349 1.000000
vt 0.856250 0.515909
vt 0.525849 0.250000
vt 0.143750 0.506818
vt 0.538349 0.250000
vt 0.856250 0.506818
vt 0.525849 0.500000
vt 0.168750 0.506818
vt 0.538349 0.500000
vt 0.831250 0.506818
vt 0.525849 0.616071
vt 0.168750 0.511039
vt 0.525849 0.750000
vt 0.168750 0.515909
vt 0.538349 0.750000
vt 0.831250 0.515909
vt 0.525849 0.000000
vt 0.525849 1.000000
vt 0.143750 0.743182
vt 0.538349 0.000000
vt 0.538349 1.000000
vt 0.856250 0.743182
vt 0.525849 0.250000
vt 0.143750 0.734091
vt 0.538349 0.250000
vt 0.856250 0.734091
vt 0.525849 0.500000
vt 0.168750 0.734091
vt 0.538349 0.500000
vt 0.831250 0.734091
vt 0.525849 0.750000
vt 0.168750 0.743182
vt 0.538349 0.750000
vt 0.831250 0.743182
vt 0.525849 0.133929
vt 0.331250 0.511039
vt 0.525849 0.000000
vt 0.525849 1.000000
vt 0.331250 0.515909
vt 0.538349 0.000000
vt 0.538349 1.000000
vt 0.668750 0.515909
vt 0.525849 0.250000
vt 0.331250 0.506818
vt 0.538349 0.250000
vt 0.668750 0.506818
vt 0.525849 0.500000
vt 0.356250 0.506818
vt 0.538349 0.500000
vt 0.643750 0.506818
vt 0.525849 0.750000
vt 0.356250 0.515909
vt 0.538349 0.750000
vt 0.643750 0.515909
vt 0.625000 0.500000
vt 0.375000 0.750000
vt 0.875000 0.750000
vt 0.856250 0.731250
vt 0.875000 0.750000
vt 0.643539 0.518539
vt 0.664366 0.539366
vt 0.834112 0.709112
vt 0.625000 0.500000
vt 0.144118 0.519118
vt 0.125000 0.500000
vt 0.168750 0.543750
vt 0.250000 0.625000
vt 0.143539 0.518539
vt 0.125000 0.500000
vt 0.331250 0.743182
vt 0.432099 0.000000
vt 0.432099 1.000000
vt 0.331250 0.734091
vt 0.432099 0.250000
vt 0.356250 0.734091
vt 0.432099 0.500000
vt 0.356250 0.743182
vt 0.432099 0.750000
vt 0.668750 0.743182
vt 0.444599 0.000000
vt 0.444599 1.000000
vt 0.668750 0.734091
vt 0.444599 0.250000
vt 0.643750 0.734091
vt 0.444599 0.500000
vt 0.643750 0.743182
vt 0.444599 0.750000
vt 0.331250 0.743182
vt 0.619599 0.000000
vt 0.619599 1.000000
vt 0.331250 0.734091
vt 0.619599 0.250000
vt 0.356250 0.734091
vt 0.619599 0.500000
vt 0.356250 0.743182
vt 0.619599 0.750000
vt 0.331250 0.743182
vt 0.525849 0.000000
vt 0.525849 1.000000
vt 0.331250 0.734091
vt 0.525849 0.250000
vt 0.356250 0.743182
vt 0.525849 0.750000
vt 0.356250 0.734091
vt 0.525849 0.500000
vt 0.668750 0.743182
vt 0.538349 0.000000
vt 0.538349 1.000000
vt 0.668750 0.734091
vt 0.538349 0.250000
vt 0.643750 0.743182
vt 0.538349 0.750000
vt 0.643750 0.734091
vt 0.538349 0.500000
s 0
usemtl 280310_23_05_25_06_43_01_0.001
f 4/9/1 30/57/1 40/73/1 37/68/1
f 37/68/2 40/73/2 48/82/2 46/80/2
f 46/80/3 48/82/3 45/79/3 44/78/3
f 44/78/4 45/79/4 30/58/4 4/10/4
f 49/83/5 37/69/5 46/80/5 52/90/5
f 73/137/5 74/139/5 51/88/5 52/90/5 46/80/5 76/144/5
f 76/144/5 46/80/5 44/78/5 129/244/5 128/242/5 127/240/5 64/117/5 61/110/5 62/112/5 4/11/5 37/69/5 49/83/5 50/85/5 51/88/5 74/139/5 75/142/5
f 129/244/5 44/78/5 63/115/5 64/117/5 127/240/5 126/237/5
f 44/78/5 4/11/5 62/112/5 63/115/5
f 131/249/6 67/124/6 68/126/6 45/79/6 133/253/6 130/246/6
f 45/79/6 48/82/6 79/151/6 80/153/6 77/146/6 56/99/6 53/92/6 54/95/6 40/74/6 30/59/6 65/119/6 66/122/6 67/124/6 131/249/6 132/251/6 133/253/6
f 78/149/6 79/151/6 48/82/6 55/97/6 56/99/6 77/146/6
f 65/119/6 30/59/6 45/79/6 68/126/6
f 55/97/6 48/82/6 40/74/6 54/95/6
f 86/167/1 57/101/1 58/104/1 88/172/1
f 54/96/1 53/93/1 85/164/1 87/170/1
f 39/71/1 29/54/1 50/86/1 49/84/1
f 88/172/2 58/104/2 59/106/2 90/176/2
f 55/98/2 54/96/2 87/170/2 89/174/2
f 47/81/2 39/71/2 49/84/2 52/91/2
f 91/178/3 92/180/3 56/100/3 55/98/3 89/174/3
f 90/176/3 59/106/3 60/108/3 93/182/3
f 51/89/3 43/77/3 47/81/3 52/91/3
f 85/165/4 53/94/4 56/100/4 92/180/4
f 93/182/4 60/108/4 57/102/4 86/168/4
f 50/87/4 29/55/4 43/77/4 51/89/4
f 39/72/5 47/81/5 43/77/5 29/56/5
f 21/41/1 28/51/1 34/64/1 33/62/1
f 33/62/2 34/64/2 42/76/2 41/75/2
f 41/75/3 42/76/3 38/70/3 36/67/3
f 36/67/4 38/70/4 28/52/4 21/42/4
f 82/158/5 81/155/5 60/109/5 59/107/5 41/75/5 84/162/5
f 84/162/5 41/75/5 36/67/5 137/262/5 136/260/5 135/258/5 71/133/5 70/131/5 69/128/5 21/43/5 33/63/5 58/105/5 57/103/5 60/109/5 81/155/5 83/160/5
f 137/262/5 36/67/5 72/135/5 71/133/5 135/258/5 134/255/5
f 36/67/5 21/43/5 69/128/5 72/135/5
f 33/63/5 41/75/5 59/107/5 58/105/5
f 42/76/6 34/65/6 28/53/6 38/70/6
f 20/39/1 12/25/1 74/140/1 73/138/1
f 104/207/1 81/156/1 82/159/1 106/212/1
f 102/202/1 105/210/1 78/150/1 77/147/1 103/204/1
f 31/60/2 20/39/2 73/138/2 76/145/2
f 106/212/2 82/159/2 84/163/2 108/216/2
f 79/152/2 78/150/2 105/210/2 107/214/2
f 75/143/3 26/49/3 31/60/3 76/145/3
f 109/218/3 80/154/3 79/152/3 107/214/3
f 108/216/3 84/163/3 83/161/3 110/220/3
f 74/141/4 12/26/4 26/49/4 75/143/4
f 103/205/4 77/148/4 80/154/4 109/218/4
f 110/220/4 83/161/4 81/157/4 104/208/4
f 20/40/5 31/60/5 26/49/5 12/27/5
f 9/20/1 14/29/1 18/36/1 10/22/1
f 2/4/1 3/6/1 6/14/1 8/18/1
f 9/20/2 10/22/2 19/38/2 17/35/2
f 22/44/3 23/45/3 15/31/3 13/28/3
f 27/50/3 25/48/3 17/35/3 19/38/3
f 13/28/4 15/31/4 6/15/4 3/7/4
f 112/223/5 22/44/5 13/28/5 3/8/5 2/5/5
f 14/30/5 9/21/5 17/35/5 25/48/5
f 8/19/6 6/16/6 15/31/6 23/45/6
f 111/222/6 27/50/6 19/38/6 10/23/6 18/37/6
f 24/46/1 16/32/1 62/113/1 61/111/1
f 95/187/1 69/129/1 70/132/1 97/192/1
f 66/123/1 65/120/1 94/184/1 96/190/1
f 35/66/2 24/46/2 61/111/2 64/118/2
f 97/192/2 70/132/2 71/134/2 99/196/2
f 67/125/2 66/123/2 96/190/2 98/194/2
f 63/116/3 32/61/3 35/66/3 64/118/3
f 100/198/3 68/127/3 67/125/3 98/194/3
f 99/196/3 71/134/3 72/136/3 101/200/3
f 62/114/4 16/33/4 32/61/4 63/116/4
f 94/185/4 65/121/4 68/127/4 100/198/4
f 101/200/4 72/136/4 69/130/4 95/188/4
f 24/47/5 35/66/5 32/61/5 16/34/5
f 8/18/1 18/36/1 2/4/1
f 2/4/1 18/36/1 14/29/1
f 23/45/3 25/48/3 27/50/3
f 23/45/3 22/44/3 25/48/3
f 87/171/5 121/232/5 14/30/5 25/48/5 107/215/5 105/211/5 102/203/5 91/179/5 89/175/5
f 124/235/5 85/166/5 92/181/5 120/231/5
f 121/232/5 87/171/5 85/166/5 124/235/5 120/231/5 92/181/5 122/233/5 123/234/5 98/195/5 96/191/5 94/186/5 2/5/5 14/30/5 125/236/5
f 121/232/7 125/236/6 14/30/2
f 25/48/5 22/44/5 112/223/5 140/269/5 141/271/5 139/267/5 123/234/5 122/233/5 92/181/5 91/179/5 102/203/5 103/206/5 109/219/5 107/215/5
f 140/269/5 112/223/5 100/199/5 98/195/5 123/234/5 139/267/5 138/264/5
f 100/199/5 112/223/5 2/5/5 94/186/5
f 95/189/6 97/193/6 114/225/6 99/197/6 118/229/6 117/228/6 104/209/6 93/183/6 86/169/6 88/173/6 18/37/6 8/19/6 115/226/6 113/224/6
f 8/19/4 113/224/6 115/226/6
f 119/230/6 108/217/6 110/221/6 116/227/6
f 97/193/6 99/197/6 114/225/6
f 143/276/6 99/197/6 101/201/6 23/45/6 144/278/6 142/273/6
f 23/45/6 27/50/6 119/230/6 116/227/6 110/221/6 104/209/6 117/228/6 118/229/6 99/197/6 143/276/6 145/280/6 144/278/6
f 119/230/2 27/50/2 111/222/2
f 111/222/6 18/37/6 88/173/6 90/177/6 93/183/6 104/209/6 106/213/6 108/217/6 119/230/6
f 113/224/6 8/19/6 23/45/6 101/201/6 95/189/6
f 134/256/1 135/259/1 143/277/1 142/274/1
f 5/12/1 1/1/1 126/238/1 127/241/1
f 131/250/1 130/247/1 138/265/1 139/268/1
f 135/259/2 136/261/2 145/281/2 143/277/2
f 11/24/2 5/12/2 127/241/2 128/243/2
f 132/252/2 131/250/2 139/268/2 141/272/2
f 145/281/3 136/261/3 137/263/3 144/279/3
f 129/245/3 7/17/3 11/24/3 128/243/3
f 140/270/3 133/254/3 132/252/3 141/272/3
f 144/279/4 137/263/4 134/257/4 142/275/4
f 126/239/4 1/2/4 7/17/4 129/245/4
f 138/266/4 130/248/4 133/254/4 140/270/4
f 5/13/5 11/24/5 7/17/5 1/3/5
